<?xml version="1.0" encoding="utf-8"?>
<!-- Generator: Adobe Illustrator 26.0.3, SVG Export Plug-In . SVG Version: 6.00 Build 0)  -->
<svg version="1.1" id="Capa_1" xmlns="http://www.w3.org/2000/svg" xmlns:xlink="http://www.w3.org/1999/xlink" x="0px" y="0px"
	 viewBox="0 0 629 170.1" style="enable-background:new 0 0 629 170.1;" xml:space="preserve">
<style type="text/css">
	.st0{fill:#FFFFFF;}
</style>
<g>
	<polygon class="st0" points="370.4,76.1 380.5,76.1 390.7,76.1 390.7,38 390.7,0 380.6,0 370.4,0 370.4,38 370.4,76.1 	"/>
	<path class="st0" d="M359.8,24.6C359.8,10,349.3,0,332.6,0h-44v76.1h20.3V49.4h7.4l23.1,26.6h25.2l-25.2-27.5
		C352.2,45.9,359.8,36.5,359.8,24.6L359.8,24.6z M330.2,32.6h-21.3V17.3h21.3c6.1,0,9.1,3.6,9.1,7.7
		C339.3,29.2,336.3,32.6,330.2,32.6L330.2,32.6z"/>
	<path class="st0" d="M421.8,38.7v-1.4c0-11.3,6.3-19.4,19.3-19.4h22.6V0h-24.3c-25.1,0-37.9,16.1-37.9,37.3v1.5
		c0,23.6,14.6,37.3,36.9,37.3h7l8.1-17.3h-12C429.4,58.8,421.8,51.9,421.8,38.7L421.8,38.7z"/>
	<path class="st0" d="M33.6,0L0,76.1h22.4l6.4-15.4H64l6.5,15.4h22.9L59.9,0H33.6L33.6,0z M35.7,43.9l10.6-25.4L57,43.9H35.7
		L35.7,43.9z"/>
	<polygon class="st0" points="146.6,47.9 129.2,0 97.2,0 97.2,76.1 117.2,76.1 117.2,21.3 137.3,76.1 155.4,76.1 175.5,21.3 
		175.5,76.1 195.5,76.1 195.5,0 163.9,0 146.6,47.9 	"/>
	<polygon class="st0" points="211,76.1 275.3,76.1 275.3,58.8 231.3,58.8 231.3,46.6 274.2,46.6 274.2,29.3 231.3,29.3 231.3,17.3 
		275.3,17.3 275.3,0 211,0 211,76.1 	"/>
	<path class="st0" d="M488.4,0l-33.6,76.1h22.4l6.4-15.4h35.2l6.5,15.4h22.9L514.7,0H488.4L488.4,0z M490.6,43.9l10.6-25.4
		l10.6,25.4H490.6L490.6,43.9z"/>
	<polygon class="st0" points="608.7,46.4 577.7,0 552.1,0 552.1,76.1 572.3,76.1 572.3,27.9 604.2,76.1 628.8,76.1 628.8,0 608.7,0 
		608.7,46.4 	"/>
	<path class="st0" d="M529.8,123.3h-18.7c-4,0-6.9-2.4-6.9-6.1c0-3.6,2.9-6,6.9-6h33.8l7.9-17.3H511c-17.3,0-27.2,10.2-27.2,23.9
		c0,14.3,9.6,22.7,24.5,22.7H527c4.1,0,6.9,2.4,6.9,6.1c0,3.7-2.8,6.1-6.9,6.1h-40.8v17.3h40.8c17.1,0,27.2-10,27.2-24.7
		C554.3,131.5,545.4,123.3,529.8,123.3L529.8,123.3z"/>
	<path class="st0" d="M400.4,118.6C400.4,104,390,94,373.2,94h-44v76.1h20.3v-26.6h7.4l23.2,26.6h25.2l-25.2-27.5
		C392.8,139.9,400.4,130.5,400.4,118.6L400.4,118.6z M370.8,126.6h-21.3v-15.3h21.3c6.1,0,9.1,3.6,9.1,7.7
		C380,123.2,376.9,126.6,370.8,126.6L370.8,126.6z"/>
	<polygon class="st0" points="411,170.1 475.4,170.1 475.4,152.8 431.3,152.8 431.3,140.6 474.3,140.6 474.3,123.3 431.3,123.3 
		431.3,111.3 475.4,111.3 475.4,94 411,94 411,170.1 	"/>
	<path class="st0" d="M293.4,94h-44.5v76.1h20.3v-24.8h23.6c17.2,0,27.8-10.9,27.8-25.6C320.5,104.4,310.1,94,293.4,94L293.4,94z
		 M291,128h-21.8v-16.7H291c6.1,0,9.1,3.8,9.1,8.5C300.1,124.3,297,128,291,128L291,128z"/>
	<path class="st0" d="M604.6,123.3h-18.7c-4,0-6.9-2.4-6.9-6.1c0-3.6,2.9-6,6.9-6h33.8l7.9-17.3h-41.8c-17.3,0-27.2,10.2-27.2,23.9
		c0,14.3,9.6,22.7,24.4,22.7h18.7c4.1,0,7,2.4,7,6.1c0,3.7-2.8,6.1-7,6.1H561v17.3h40.9c17.1,0,27.2-10,27.2-24.7
		C629,131.5,620.1,123.3,604.6,123.3L604.6,123.3z"/>
	<polygon class="st0" points="85.3,170.1 149.6,170.1 149.6,152.8 105.6,152.8 105.6,140.6 148.5,140.6 148.5,123.3 105.6,123.3 
		105.6,111.3 149.6,111.3 149.6,94 85.3,94 85.3,170.1 	"/>
	<polygon class="st0" points="245.1,94 219.3,94 199.5,116.9 179.7,94 153.2,94 186.7,131.6 152.5,170.1 178.4,170.1 199.1,145.9 
		219.9,170.1 246.4,170.1 212.1,131.2 245.1,94 	"/>
</g>
</svg>
