<?xml version="1.0" encoding="utf-8"?>
<!-- Generator: Adobe Illustrator 26.0.3, SVG Export Plug-In . SVG Version: 6.00 Build 0)  -->
<svg version="1.1" id="Capa_1" xmlns="http://www.w3.org/2000/svg" xmlns:xlink="http://www.w3.org/1999/xlink" x="0px" y="0px"
	 viewBox="0 0 629 274.1" style="enable-background:new 0 0 629 274.1;" xml:space="preserve">
<style type="text/css">
	.st0{fill:#FFFFFF;}
</style>
<g>
	<polygon class="st0" points="370.4,76.1 380.5,76.1 390.7,76.1 390.7,38 390.7,0 380.6,0 370.4,0 370.4,38 	"/>
	<path class="st0" d="M359.8,24.6C359.8,10,349.3,0,332.6,0h-44v76.1h20.3V49.4h7.4L339.4,76h25.2l-25.2-27.5
		C352.2,45.9,359.8,36.5,359.8,24.6L359.8,24.6z M330.2,32.6h-21.3V17.3h21.3c6.1,0,9.1,3.6,9.1,7.7
		C339.3,29.2,336.3,32.6,330.2,32.6L330.2,32.6z"/>
	<path class="st0" d="M421.8,38.7v-1.4c0-11.3,6.3-19.4,19.3-19.4h22.6V0h-24.3c-25.1,0-37.9,16.1-37.9,37.3v1.5
		c0,23.6,14.6,37.3,36.9,37.3h7l8.1-17.3h-12C429.4,58.8,421.8,51.9,421.8,38.7L421.8,38.7z"/>
	<path class="st0" d="M33.6,0L0,76.1h22.4l6.4-15.4H64l6.5,15.4h22.9L59.9,0H33.6L33.6,0z M35.7,43.9l10.6-25.4L57,43.9H35.7
		L35.7,43.9z"/>
	<polygon class="st0" points="146.6,47.9 129.2,0 97.2,0 97.2,76.1 117.2,76.1 117.2,21.3 137.3,76.1 155.4,76.1 175.5,21.3 
		175.5,76.1 195.5,76.1 195.5,0 163.9,0 	"/>
	<polygon class="st0" points="211,76.1 275.3,76.1 275.3,58.8 231.3,58.8 231.3,46.6 274.2,46.6 274.2,29.3 231.3,29.3 231.3,17.3 
		275.3,17.3 275.3,0 211,0 	"/>
	<path class="st0" d="M488.4,0l-33.6,76.1h22.4l6.4-15.4h35.2l6.5,15.4h22.9L514.7,0H488.4L488.4,0z M490.6,43.9l10.6-25.4
		l10.6,25.4H490.6L490.6,43.9z"/>
	<polygon class="st0" points="608.7,46.4 577.7,0 552.1,0 552.1,76.1 572.3,76.1 572.3,27.9 604.2,76.1 628.8,76.1 628.8,0 608.7,0 
			"/>
	<path class="st0" d="M529.8,123.3h-18.7c-4,0-6.9-2.4-6.9-6.1c0-3.6,2.9-6,6.9-6h33.8l7.9-17.3H511c-17.3,0-27.2,10.2-27.2,23.9
		c0,14.3,9.6,22.7,24.5,22.7H527c4.1,0,6.9,2.4,6.9,6.1c0,3.7-2.8,6.1-6.9,6.1h-40.8V170H527c17.1,0,27.2-10,27.2-24.7
		C554.3,131.5,545.4,123.3,529.8,123.3L529.8,123.3z"/>
	<path class="st0" d="M400.4,118.6C400.4,104,390,94,373.2,94h-44v76.1h20.3v-26.6h7.4l23.2,26.6h25.2l-25.2-27.5
		C392.8,139.9,400.4,130.5,400.4,118.6L400.4,118.6z M370.8,126.6h-21.3v-15.3h21.3c6.1,0,9.1,3.6,9.1,7.7
		C380,123.2,376.9,126.6,370.8,126.6L370.8,126.6z"/>
	<polygon class="st0" points="411,170.1 475.4,170.1 475.4,152.8 431.3,152.8 431.3,140.6 474.3,140.6 474.3,123.3 431.3,123.3 
		431.3,111.3 475.4,111.3 475.4,94 411,94 	"/>
	<path class="st0" d="M293.4,94h-44.5v76.1h20.3v-24.8h23.6c17.2,0,27.8-10.9,27.8-25.6C320.5,104.4,310.1,94,293.4,94L293.4,94z
		 M291,128h-21.8v-16.7H291c6.1,0,9.1,3.8,9.1,8.5C300.1,124.3,297,128,291,128L291,128z"/>
	<path class="st0" d="M604.6,123.3h-18.7c-4,0-6.9-2.4-6.9-6.1c0-3.6,2.9-6,6.9-6h33.8l7.9-17.3h-41.8c-17.3,0-27.2,10.2-27.2,23.9
		c0,14.3,9.6,22.7,24.4,22.7h18.7c4.1,0,7,2.4,7,6.1c0,3.7-2.8,6.1-7,6.1H561V170h40.9c17.1,0,27.2-10,27.2-24.7
		C629,131.5,620.1,123.3,604.6,123.3L604.6,123.3z"/>
	<polygon class="st0" points="85.3,170.1 149.6,170.1 149.6,152.8 105.6,152.8 105.6,140.6 148.5,140.6 148.5,123.3 105.6,123.3 
		105.6,111.3 149.6,111.3 149.6,94 85.3,94 	"/>
	<polygon class="st0" points="245.1,94 219.3,94 199.5,116.9 179.7,94 153.2,94 186.7,131.6 152.5,170.1 178.4,170.1 199.1,145.9 
		219.9,170.1 246.4,170.1 212.1,131.2 	"/>
</g>
<g>
	<path class="st0" d="M71.8,227.9c0.7,0.5,0.1-0.4,0.1-1c-0.2,0-0.5,0-0.4,0.3c-0.2-0.2-0.1-0.9-0.4-0.9c1.3-0.7,4.8-1.8,6.1,0.6
		c-0.1,0.1-0.4,0.1-0.4,0.5c-0.1,0.2,0.2,0.3,0.2,0.4c-0.3,2.5,0.7,4.9,0.7,7c-0.2,2.2,0,4.4,0.3,6c0.5,4.1,0.3,9,1.3,12.9
		c-0.1,0-0.1,0.2-0.1,0.3c0.1,0,0.1-0.2,0.1-0.3c0.3,0-0.1,0.5,0.1,0.3c0.2-0.7,0.9-0.8,1-1.4c-0.1,0-0.1,0.3-0.4,0.3
		c0.5-0.5,0.8-1.2,1.1-1.9c-0.3,0-0.3-0.5,0.1-0.3c0.1-0.4,0.1-0.9,0.2-1.3c0,0.3,0,0.4,0.2,0.4c0.2-1.1,0.9-1.9,0.8-3.1
		c0.1,0,0.1,0,0.2-0.1c0,0.1,0.1,0.1,0.1,0.1c0-0.1-0.1,0-0.1-0.1c-0.2-0.1,0-0.3,0-0.5c0.1,0,0.1,0.2,0.1,0.3
		c0.7-1,0.9-2.4,1.6-3.2c0-0.1-0.1-0.2-0.1-0.4c1.3-2.3,2.4-4.9,3.6-7.6c0.3,0,0.3-0.1,0.5-0.1c-0.1-0.2-0.1-0.4-0.1-0.7
		c0.2,0,0.2-0.3,0.5-0.2c0-0.4-0.4-0.1-0.4-0.2c0-0.6,0.1-0.2,0.5-0.2c0.2-1.2,1.3-2.5,1.5-3.8c0.1,0,0.3,0,0.3,0.2
		c0.2-0.5,0.8-0.9,0.8-1.6c0.1-0.3,0.1,0,0.3,0.1c0.4-0.5,0.2-1.2,0.5-1.6c0.1,0,0.1,0.2,0.1,0.3c0.2,0,0.3-0.1,0.3-0.6
		c0.1,0,0.2,0,0.2-0.1c-0.1-0.1-0.2,0-0.2,0.1c0-0.8,1.5-1.5,1.4-2.5c0.1-0.2,0.2-0.2,0.4-0.1c-0.3-0.2,0-0.7,0.2-1.1
		c0.5,0.2-0.1,0.4-0.1,0.9c0.3,0,1-1,0.3-1c0.2-0.1,0.3-0.2,0.4-0.5c0.4-0.1,0,0.4,0.2,0.4c0.2-0.2,0.2-0.8,0.4-0.9
		c0.2-0.2,0.1,0.2,0.2,0.2c0.3-0.1-0.1-0.6,0.2-0.8c0.8-0.3,1.3-0.7,2-1.1c1.4,0,2.3,0.4,3.3,1c0,0.4,0.2,0.8,0.7,0.9
		c-0.2,2.2-1.3,3.3-2.3,4.6c0.1,0.1,0.1,0.2,0.1,0.6c-2.6,2.8-4.2,6.7-6.3,9.9c-3,5.6-5.3,11.7-7.9,17.8c-1,2.5-1.9,4.8-4.3,5.9
		c-0.2,0.1-0.4,0.1-0.4,0.3c-0.9,0.2-1.1,0.2-1.6,0.3c-0.1-0.1-0.3-0.3-0.8-0.1c-0.5-0.2-0.9-0.4-1.8-0.3c0-0.3-0.2-0.3-0.7-0.2
		c0-0.3-0.2-0.4-0.4-0.3c-0.9-0.4-1.3-1.3-2.5-1.4c0.1-0.3-0.3-0.2-0.1-0.5c0.2-0.1,0.1,0.3,0.3,0.3c-0.1-0.7-0.5-2-0.5-3.3
		c0-0.1-0.1,0.1-0.3,0c0-0.3,0.2-0.1,0.2-0.4c-0.8-7.1-1.4-14-1.4-21.7c0-0.2-0.4,0-0.4-0.3c0.6-0.7,0.6-3.1,0.3-3.8
		C71.8,229.1,71.7,228.5,71.8,227.9 M71.5,229c-0.2,0-0.1-0.4-0.1-0.5C71.5,228.5,71.5,228.8,71.5,229 M71.7,227.8
		c-0.3,0.1-0.2-0.3-0.2-0.5C71.8,226.9,71.7,227.6,71.7,227.8 M71.7,232.3c-0.4,0,0-0.2-0.2-0.2C71.7,231.6,71.8,232.2,71.7,232.3
		 M71.7,233.7h-0.2H71.7z M71.7,234.4c0,0.1-0.2,0.1-0.2,0.1C71.5,234.4,71.7,234.4,71.7,234.4 M71.7,231c-0.3-0.4,0-1.1,0.1-1.4
		C71.9,229.9,71.8,230.5,71.7,231 M72,232.2c0,0.3-0.2,1,0.1,1C72.1,232.8,72.5,232.2,72,232.2 M72,237.5c0,0.1,0,0.2,0.1,0.2
		C72.1,237.6,72.1,237.5,72,237.5 M72,238.1c0,0.2,0.1,0.3,0.3,0.3C72.3,238.3,72.5,238,72,238.1 M72.1,239.4v0.2
		C72.6,239.8,72.6,239.3,72.1,239.4 M72.6,240.1h-0.2v0.2h0.2V240.1z M72.6,241.3c0-0.2-0.1-0.3-0.2-0.2c0,0.2,0,0.3,0.1,0.3
		C72.5,241.4,72.5,241.3,72.6,241.3 M72.5,241.6c0,0.3,0,0.8,0.1,0.6C72.6,242.1,72.6,241.4,72.5,241.6 M72.6,249.5h-0.1v-0.1h0.1
		V249.5z M73,244.8h-0.4v0.4C73,245.2,72.8,244.9,73,244.8 M72.6,245.7c0.2,0.4,0,1.2,0.2,1.8C73,246.9,73.1,246,72.6,245.7 M73,249
		c-0.2,0.4-0.2,1,0.1,1.1C73.1,249.5,73,249.3,73,249 M73.1,250.5c0,0.2,0,0.7,0.1,0.8C73.2,251,73.4,250.3,73.1,250.5 M73.2,252.7
		v0.2C73.7,253.1,73.7,252.5,73.2,252.7 M73.4,253.8c0,0.1-0.2,0.4,0,0.4C73.4,254.1,73.8,253.9,73.4,253.8 M73.7,255.9
		c0,0.3,0.1,0.7,0.2,0.7C73.9,256.4,74,255.9,73.7,255.9 M74.1,251.5c0-0.2-0.1-0.2-0.2-0.3c0,0.1-0.1,0.1-0.1,0.2
		C73.9,251.4,73.9,251.5,74.1,251.5 M79.6,253.8c-0.3-0.2,0.1-0.6,0.1-0.9C79.9,253.1,79.6,253.5,79.6,253.8 M79.7,254.5
		C79.6,254.6,79.7,254.6,79.7,254.5c0.1,0,0.1-0.2,0.1-0.3c0.1-0.1,0-0.1,0,0C79.7,254.1,79.7,254.2,79.7,254.5 M80.5,251.6
		c-0.1,0.2-0.1,0-0.2,0C80.2,251.5,80.5,251.5,80.5,251.6 M80.4,251.3c0.1-0.7,0.7-1.2,0.7-2.1C81.3,249.5,80.7,250.8,80.4,251.3
		 M81.3,249.6c0,0,0-0.1,0.2-0.1C81.6,249.5,81.6,249.6,81.3,249.6 M81.6,248.7c0.3,0.1,0,0.6,0,0.8
		C81.3,249.2,81.7,249.2,81.6,248.7 M83.9,242.9c0,0.1-0.1,0.1-0.2,0.1C83.8,242.9,83.8,242.9,83.9,242.9 M84.2,244.8
		c0-0.1,0.1,0,0.1-0.1C84.3,244.7,84.2,244.7,84.2,244.8 M84.9,241.3c0-0.2,0-0.3,0.1-0.4h0.1C85.1,241,85.2,241.4,84.9,241.3
		 M85.7,239.4c0,0-0.1,0-0.1,0.1C85.7,239.4,85.7,239.5,85.7,239.4 M85.7,241.3c0-0.2,0-0.3-0.1-0.2c0,0.2,0,0.3,0.1,0.3V241.3z
		 M85.7,239.1c0.1-0.1,0.2-0.3,0.2-0.7C86.3,238.7,86.2,239.3,85.7,239.1 M86.4,239.6h-0.1v0.3h0.1V239.6z M86.5,239.3
		c0.3,0.1,0.3-0.4,0.1-0.3c0,0,0,0.1-0.1,0V239.3z M87.6,235.8c0,0.2-0.1,0-0.3,0C87.5,235.7,87.6,235.7,87.6,235.8 M87.7,234.7
		c0-0.3,0.1-0.4,0.2-0.4C87.8,234.4,87.9,234.7,87.7,234.7 M88.2,234.8v0.2c-0.2,0-0.2,0-0.2,0.1h-0.1v-0.2v-0.1H88.2z M88.3,233.8
		c-0.1,0-0.1-0.2,0-0.2h0.1C88.4,233.7,88.3,233.8,88.3,233.8 M88.4,233.2c0.2,0.2,0.1,0.3,0,0.4V233.2z M89.8,231.7h-0.2v-0.1h0.2
		V231.7z M90.2,232.2h0.2H90.2z M92.5,227.7h-0.2v0.2h0.2V227.7z M92.5,226.8c-0.2,0,0-0.4,0.3-0.4
		C92.9,226.6,92.8,226.6,92.5,226.8 M93.6,225.3c-0.1,0.3-0.1,0.7-0.5,0.5c0.1,0,0.3-0.2,0.1-0.5H93.6z M97.4,221.7
		c-0.3,0-0.5,0.3-0.3,0.5C97,221.9,97.4,222,97.4,221.7"/>
	<path class="st0" d="M121.9,233.7c-0.1-0.2-0.4,0.6-0.5,0.7c0-0.7,0.8-1.4,1.2-2.1c0.6,0.2,0.7,0.6,0.9,0c0.3,0.6-0.3,1.1-0.2,2
		c-0.4,0.1,0.1,0.5-0.2,0.9c0.1,0.3,0.2-0.2,0.3-0.3c-0.5,1.4-0.8,2.6-1.4,3.8c0,0.2,0.2,0,0.2-0.2c-0.7,1.6-1.4,3.6-1.8,5.3h-0.2
		c0.2-0.4-0.3-0.1,0,0c-0.7,1.1-0.8,2-1.4,3.2c-0.1,0.1-0.2,0.1-0.3,0c0,0.4-0.4,0.5-0.3,1.1h-0.3c-0.4,1.6-1.9,2.7-2.4,4.6
		c-0.1,0-0.4,0-0.4-0.1c-0.2,0.1,0,0.2,0,0.7c-1.4,1.8-3,3.6-4.6,5.5c-0.1,0.1-0.1,0.1-0.1,0.4c-0.3-0.2-0.2,0.3-0.3,0.3
		c-0.6-0.3-0.3,0.5-0.6,0.5c-0.1-0.1-0.3-0.1-0.4-0.1c-0.3,0.7-1.2,0.9-1.3,1.9c-1.5,1.1-3.5,2-6,2c-0.8-0.4-2-0.5-2.7-1
		c-0.3-0.1-0.4-0.5-0.8-0.8c-3-1.8-4.4-3.5-4.6-7.2c-0.2-1.4,0-3.3,0.2-4.2c-0.1,0.9,0,1.5-0.1,2.7c0.3-1,0.1-2.4,0.3-3.4
		c-0.4-0.2,0,0.4-0.3,0.3c0.1-0.1,0-0.5,0-0.8c0.1,0.2,0.2,0.2,0.6,0.1c0.1,1-0.3,2.5,0,3.7c0.3-3.8,0.8-9.3,2.1-12.6
		c0-1.9,0.8-3.1,1-4.6c-0.7,0.8-1,2.9-1.1,3.6c-0.4-1,0.4-1.9,0.4-3c-0.8,1.1-0.7,3-1.3,4.2c0.3-3.5,1.9-6.6,2.6-9.9
		c0.3-0.1,0.4-0.4,0.7-0.6c0.2-0.3-0.3-0.1-0.2-0.5c1.5-0.2,5.3-1.1,6.6,0.7c-0.4,1-0.5,2.2-0.9,3.1c-0.2,1.3-0.2,2.7-0.4,3.8
		c-0.1,0.2-0.4,0.3-0.5,0.5c-0.2,0.9-0.3,2-0.5,2.7c-0.2,1.5-1,3.4-1.1,5.2c-0.2,1.1-0.3,3.4-0.7,4.4c-0.3,3.5-0.5,6.8,0.2,9.6
		c1.2-0.8,2.1-2,3.3-2.8c-0.2,0.4-0.7,0.8-1.1,1.3c4.8-4.2,8.6-9.8,12.4-15.1c0.1,0,0.1-0.3,0.4,0c1-2.4,2.9-4,4-6.4
		C120.6,236,121.5,235,121.9,233.7 M93.5,248.9c0.1-0.2,0.1-0.5,0.6-0.5C93.7,248.5,93.9,248.9,93.5,248.9 M93.5,253.8
		c0.1,0.1,0,0.4,0.2,0.3C93.7,253.9,93.6,253.8,93.5,253.8 M93.9,248c-0.2-0.1,0-0.5,0-0.7C94.2,247.3,93.9,247.9,93.9,248
		 M94.2,249c0,0.2,0.1,0.6-0.1,0.6C94.1,249.3,93.6,249,94.2,249 M94.1,253.4c0,0.6-0.3,0.8,0,1.2C94.1,254.2,94.4,253.6,94.1,253.4
		 M94.1,246.2c0.1,0,0.1,0.1,0.2,0.1C94.3,246.8,93.9,246.3,94.1,246.2 M94.4,244.7c1-1.4,0.4-3.2,1.4-4.3c-0.8,2.4-1.1,5.2-1.6,7.9
		c-0.1-1.5-0.4-3,0.3-4.4C94.5,244.3,94.3,244.3,94.4,244.7 M94.1,254.7v1.3C94.4,255.9,94.2,254.8,94.1,254.7 M94.3,256.5
		c0-0.1,0-0.4-0.2-0.3v0.2C94.2,256.4,94.2,256.5,94.3,256.5 M94.4,244.8c-0.1,0.4-0.3,1.1-0.1,1.3
		C94.4,245.9,94.7,245.2,94.4,244.8 M94.3,256.6c0,0.2,0,0.8,0.2,0.4C94.2,257.2,94.5,256.5,94.3,256.6 M94.3,257.4
		c0.2,0-0.1,0.7,0.2,0.5C94.7,257.9,94.4,257.2,94.3,257.4 M95.2,241.1c-0.2,1-0.2,1.8-0.7,2.9C94.5,242.9,94.7,241.6,95.2,241.1
		 M96.7,236.4c0,0,0.1-0.2,0-0.5h0.1c0-0.1,0.3-0.4,0.1-0.7c-0.1,0.3-0.2,0.4-0.2,0.7C96.5,236,96.4,236.4,96.7,236.4 M97.1,234.3
		c0,0.1-0.1,0.1-0.1,0.4C97.4,234.8,97.4,234.2,97.1,234.3 M97.4,234.8c0.1,0.2-0.3,0.3,0,0.5C97.4,235.2,97.6,234.8,97.4,234.8
		 M97.7,232.5c0,0.2-0.3,0.7,0,0.9C97.7,233.2,98.1,232.7,97.7,232.5 M98.7,230.3c0,0,0.1,0,0.1-0.1
		C98.8,230.2,98.7,230.2,98.7,230.3 M107.7,217c-0.8,1-1.4,1.5-2.2,2.1c-1.3,0-1.9,0.8-3.3,0.8c-0.5-2.2-0.8-4.7-0.9-7.2
		c1.7-0.1,2.4-1.4,4.7-1.3c1.3,0.4,2.2,1.3,2.7,2.6c-0.1,1.2-0.2,2.1-0.5,3.1C108,217.3,107.9,216.7,107.7,217 M104.4,257.1
		c-0.3,0,0.2-0.2,0-0.4C104.7,256.8,104.4,256.9,104.4,257.1 M105,256.4c-0.2-0.2,0-0.5,0.3-0.5C105.5,256.2,104.9,256.1,105,256.4
		 M105.4,255.9c-0.1-0.3,0.2-0.1,0.2-0.4C105.7,255.8,105.5,255.9,105.4,255.9 M105.7,255.2c0.2,0,0.2,0.2,0,0.2h-0.1
		C105.6,255.3,105.7,255.2,105.7,255.2 M106.1,254.8c0.1-0.2,0.2-0.3,0.5-0.5C106.6,254.6,106.6,254.9,106.1,254.8 M107.6,253.2
		c0,0.1,0,0.1-0.1,0.1C107.5,253.4,107.5,253.2,107.6,253.2 M108,253.1c-0.3-0.7,0.9-1.5,1.3-2C109,251.9,108.2,252.2,108,253.1
		 M109.4,250.9c0,0,0,0.2-0.1,0.2C109.3,250.9,109.3,250.9,109.4,250.9 M109.7,250.5c0.3,0.1-0.1,0.4-0.2,0.4
		C109.3,250.6,109.5,250.6,109.7,250.5 M110,250.5c-0.3-0.2,0.1-0.4,0.1-0.5h0.1C110.2,250.2,110.1,250.2,110,250.5 M110.9,248.7
		c0.1,0,0.3,0.1,0.3,0.2h-0.3V248.7z M111.3,248.6c-0.3,0,0-0.1,0-0.3C111.4,248.3,111.3,248.5,111.3,248.6 M112,247.7
		c-0.4,0,0.2-0.7,0.5-0.8C112.3,247.3,112.2,247.4,112,247.7 M112.5,246.9v-0.2h0.1C112.6,246.8,112.6,246.9,112.5,246.9
		 M113.4,245.9c-0.1,0.2-0.4,0.7-0.8,0.8C112.9,246.3,112.8,245.7,113.4,245.9 M114.7,243.7c0.2,0.2-0.1,0.5-0.2,0.5
		C114.3,243.9,114.7,244,114.7,243.7 M115.1,243.4c-0.2,0,0.1-0.5,0.3-0.5C115.4,243,115.3,243.3,115.1,243.4 M115.8,242.4
		c0,0.2,0,0.2-0.2,0.2C115.6,242.4,115.6,242.4,115.8,242.4 M115.6,243.4c0,0.2,0,0.3,0.2,0.3C115.8,243.6,115.9,243.3,115.6,243.4
		 M115.8,242.4c0-0.2,0.2-0.3,0.3-0.7C116.1,242.2,116,242.3,115.8,242.4 M116.6,241.6c-0.4-0.2,0.2-0.5,0.1-0.8
		C117.1,241.1,116.6,241.4,116.6,241.6 M116.9,240.7c0-0.3,0.2-0.4,0.4-0.5C117.2,240.3,117.3,240.7,116.9,240.7 M118,239.5h-0.2
		v-0.2h0.2V239.5z M118.2,239c-0.1,0,0-0.7,0.3-0.5C118.5,238.8,118.2,238.8,118.2,239 M119.3,237.5c0.1-0.1,0-0.3,0.1-0.3
		C119.4,237.3,119.4,237.5,119.3,237.5 M119.9,236.4c0.1,0.4-0.1,0.4,0,0.6C119.5,237,119.5,236.2,119.9,236.4 M119.9,236.4
		c0-0.2,0.1-0.3,0.3-0.3C120.1,236.1,120.2,236.4,119.9,236.4 M120.4,235.8h-0.2H120.4z M120.6,235.7c-0.5-0.2,0.1-0.7,0.4-0.9
		C120.8,235.2,120.7,235.5,120.6,235.7 M121.2,234.5c0.2,0,0.1,0.5-0.1,0.3C121.1,234.7,121.2,234.7,121.2,234.5 M121.2,235.6
		c0.1,0,0.2,0,0.2-0.1C121.3,235.5,121.2,235.5,121.2,235.6 M122.7,232.4c-0.2,0.4-0.5,0.7-0.7,1.2
		C122.5,233.4,122.8,232.7,122.7,232.4"/>
	<path class="st0" d="M115.9,227.9c0.7,0.5,0.1-0.4,0.1-1c-0.2,0-0.5,0-0.4,0.3c-0.2-0.2-0.1-0.9-0.4-0.9c1.3-0.7,4.8-1.8,6.2,0.6
		c-0.1,0.1-0.4,0.1-0.4,0.5c-0.1,0.2,0.2,0.3,0.2,0.4c-0.3,2.5,0.7,4.9,0.7,7c-0.2,2.2,0,4.4,0.3,6c0.5,4.1,0.3,9,1.3,12.9
		c-0.1,0-0.1,0.2-0.1,0.3c0.1,0,0.1-0.2,0.1-0.3c0.3,0-0.1,0.5,0.1,0.3c0.2-0.7,0.9-0.8,1-1.4c-0.1,0-0.1,0.3-0.4,0.3
		c0.5-0.5,0.8-1.2,1.1-1.9c-0.3,0-0.3-0.5,0.1-0.3c0.1-0.4,0.1-0.9,0.2-1.3c0,0.3,0,0.4,0.2,0.4c0.2-1.1,0.9-1.9,0.8-3.1
		c0.1,0,0.1,0,0.2-0.1c0,0.1,0.1,0.1,0.1,0.1c0-0.1-0.1,0-0.1-0.1c-0.2-0.1,0-0.3,0-0.5c0.1,0,0.1,0.2,0.1,0.3
		c0.7-1,0.9-2.4,1.6-3.2c0-0.1-0.1-0.2-0.1-0.4c1.3-2.3,2.4-4.9,3.6-7.6c0.3,0,0.3-0.1,0.5-0.1c-0.1-0.2-0.1-0.4-0.1-0.7
		c0.2,0,0.2-0.3,0.5-0.2c0-0.4-0.4-0.1-0.4-0.2c0-0.6,0.1-0.2,0.6-0.2c0.2-1.2,1.3-2.5,1.5-3.8c0.1,0,0.3,0,0.3,0.2
		c0.2-0.5,0.8-0.9,0.8-1.6c0.1-0.3,0.1,0,0.3,0.1c0.4-0.5,0.2-1.2,0.6-1.6c0.1,0,0.1,0.2,0.1,0.3c0.2,0,0.3-0.1,0.3-0.6
		c0.1,0,0.2,0,0.2-0.1c-0.1-0.1-0.2,0-0.2,0.1c0-0.8,1.5-1.5,1.4-2.5c0.1-0.2,0.2-0.2,0.4-0.1c-0.3-0.2,0-0.7,0.2-1.1
		c0.5,0.2-0.1,0.4-0.1,0.9c0.3,0,1-1,0.3-1c0.2-0.1,0.3-0.2,0.4-0.5c0.4-0.1,0,0.4,0.2,0.4c0.2-0.2,0.2-0.8,0.4-0.9
		c0.2-0.2,0.1,0.2,0.2,0.2c0.3-0.1-0.1-0.6,0.2-0.8c0.8-0.3,1.3-0.7,2-1.1c1.4,0,2.3,0.4,3.3,1c0,0.4,0.2,0.8,0.7,0.9
		c-0.2,2.2-1.3,3.3-2.3,4.6c0.1,0.1,0.1,0.2,0.1,0.6c-2.6,2.8-4.2,6.7-6.3,9.9c-3,5.6-5.3,11.7-7.9,17.8c-1,2.5-1.9,4.8-4.3,5.9
		c-0.2,0.1-0.4,0.1-0.4,0.3c-0.9,0.2-1.1,0.2-1.6,0.3c-0.1-0.1-0.3-0.3-0.8-0.1c-0.5-0.2-0.9-0.4-1.8-0.3c0-0.3-0.2-0.3-0.7-0.2
		c0-0.3-0.2-0.4-0.4-0.3c-0.9-0.4-1.3-1.3-2.5-1.4c0.1-0.3-0.3-0.2-0.1-0.5c0.2-0.1,0.1,0.3,0.3,0.3c-0.1-0.7-0.6-2-0.6-3.3
		c0-0.1-0.1,0.1-0.3,0c0-0.3,0.2-0.1,0.2-0.4c-0.8-7.1-1.4-14-1.4-21.7c0-0.2-0.4,0-0.4-0.3c0.5-0.7,0.5-3.1,0.3-3.8
		C115.9,229.1,115.8,228.5,115.9,227.9 M115.6,229c-0.2,0-0.1-0.4-0.1-0.5C115.6,228.5,115.6,228.8,115.6,229 M115.8,227.8
		c-0.3,0.1-0.2-0.3-0.2-0.5C115.9,226.9,115.8,227.6,115.8,227.8 M115.8,232.3c-0.4,0,0-0.2-0.2-0.2
		C115.8,231.6,115.9,232.2,115.8,232.3 M115.8,233.7h-0.2H115.8z M115.8,234.4c0,0.1-0.2,0.1-0.2,0.1
		C115.6,234.4,115.8,234.4,115.8,234.4 M115.8,231c-0.3-0.4,0-1.1,0.1-1.4C116,229.9,115.9,230.5,115.8,231 M116.1,232.2
		c0,0.3-0.2,1,0.1,1C116.2,232.8,116.6,232.2,116.1,232.2 M116.1,237.5c0,0.1,0,0.2,0.1,0.2C116.2,237.6,116.2,237.5,116.1,237.5
		 M116.1,238.1c0,0.2,0.1,0.3,0.3,0.3C116.5,238.3,116.6,238,116.1,238.1 M116.2,239.4v0.2C116.7,239.8,116.7,239.3,116.2,239.4
		 M116.7,240.1h-0.2v0.2h0.2V240.1z M116.7,241.3c0-0.2-0.1-0.3-0.2-0.2c0,0.2,0,0.3,0.1,0.3C116.6,241.4,116.6,241.3,116.7,241.3
		 M116.6,241.6c0,0.3,0,0.8,0.1,0.6C116.7,242.1,116.7,241.4,116.6,241.6 M116.7,249.5h-0.1v-0.1h0.1V249.5z M117.1,244.8h-0.4v0.4
		C117.1,245.2,116.9,244.9,117.1,244.8 M116.7,245.7c0.2,0.4,0,1.2,0.2,1.8C117.1,246.9,117.2,246,116.7,245.7 M117.1,249
		c-0.2,0.4-0.2,1,0.1,1.1C117.2,249.5,117.1,249.3,117.1,249 M117.2,250.5c0,0.2,0,0.7,0.1,0.8C117.3,251,117.6,250.3,117.2,250.5
		 M117.3,252.7v0.2C117.8,253.1,117.8,252.5,117.3,252.7 M117.6,253.8c0,0.1-0.2,0.4,0,0.4C117.6,254.1,117.9,253.9,117.6,253.8
		 M117.8,255.9c0,0.3,0.1,0.7,0.2,0.7C118,256.4,118.1,255.9,117.8,255.9 M118.2,251.5c0-0.2-0.1-0.2-0.2-0.3c0,0.1-0.1,0.1-0.1,0.2
		C118,251.4,118,251.5,118.2,251.5 M123.7,253.8c-0.3-0.2,0.1-0.6,0.1-0.9C124,253.1,123.7,253.5,123.7,253.8 M123.8,254.5
		C123.7,254.6,123.8,254.6,123.8,254.5c0.1,0,0.1-0.2,0.1-0.3c0.1-0.1,0-0.1,0,0C123.8,254.1,123.8,254.2,123.8,254.5 M124.6,251.6
		c-0.1,0.2-0.1,0-0.2,0C124.4,251.5,124.6,251.5,124.6,251.6 M124.5,251.3c0.1-0.7,0.7-1.2,0.7-2.1
		C125.5,249.5,124.8,250.8,124.5,251.3 M125.5,249.6c0,0,0-0.1,0.2-0.1C125.7,249.5,125.7,249.6,125.5,249.6 M125.7,248.7
		c0.3,0.1,0,0.6,0,0.8C125.5,249.2,125.8,249.2,125.7,248.7 M128,242.9c0,0.1-0.1,0.1-0.2,0.1C127.9,242.9,127.9,242.9,128,242.9
		 M128.3,244.8c0-0.1,0.1,0,0.1-0.1C128.4,244.7,128.3,244.7,128.3,244.8 M129,241.3c0-0.2,0-0.3,0.1-0.4h0.1
		C129.2,241,129.3,241.4,129,241.3 M129.8,239.4c0,0-0.1,0-0.1,0.1C129.8,239.4,129.8,239.5,129.8,239.4 M129.8,241.3
		c0-0.2,0-0.3-0.1-0.2c0,0.2,0,0.3,0.1,0.3V241.3z M129.8,239.1c0.1-0.1,0.2-0.3,0.2-0.7C130.4,238.7,130.3,239.3,129.8,239.1
		 M130.5,239.6h-0.1v0.3h0.1V239.6z M130.6,239.3c0.3,0.1,0.3-0.4,0.1-0.3c0,0,0,0.1-0.1,0V239.3z M131.7,235.8c0,0.2-0.1,0-0.3,0
		C131.6,235.7,131.7,235.7,131.7,235.8 M131.8,234.7c0-0.3,0.1-0.4,0.2-0.4C131.9,234.4,132,234.7,131.8,234.7 M132.3,234.8v0.2
		c-0.2,0-0.2,0-0.2,0.1h-0.1v-0.2v-0.1H132.3z M132.4,233.8c-0.1,0-0.1-0.2,0-0.2h0.1C132.5,233.7,132.4,233.8,132.4,233.8
		 M132.5,233.2c0.2,0.2,0.1,0.3,0,0.4V233.2z M133.9,231.7h-0.2v-0.1h0.2V231.7z M134.3,232.2h0.2H134.3z M136.6,227.7h-0.2v0.2h0.2
		V227.7z M136.6,226.8c-0.2,0,0-0.4,0.3-0.4C137,226.6,136.9,226.6,136.6,226.8 M137.8,225.3c-0.1,0.3-0.1,0.7-0.5,0.5
		c0.1,0,0.3-0.2,0.1-0.5H137.8z M141.5,221.7c-0.3,0-0.5,0.3-0.3,0.5C141.1,221.9,141.5,222,141.5,221.7"/>
	<path class="st0" d="M165.2,231.9c-0.2,0,0,0.2,0,0.2c-0.7,2-1.1,4.4-1.9,6.3c0,3-0.3,5.4-0.3,8.4c0.4,2.9,0.4,6.6,2.4,8.7
		c4.4-2,6.7-5.9,9.8-9.2c-0.1-0.3,0.2-0.3,0.2-0.8c0.3,0,0.1-0.4,0.5-0.2c1.8-2.9,3.7-5.3,5.5-7.9c0-0.2-0.2-0.2-0.1-0.3
		c0.4,0.1,0.8-0.3,0.7-1c0.3,0,0.4-0.3,0.5,0c0-1,0.8-1.3,1.1-1.6c0.7-1,1.8-2.5,2.7-3.6c0.1,0.2,0.2,0.3,0.3,0.4
		c-0.1,0.7-0.2,1.1,0,1.6c-0.3,0.9-0.8,1.9-1.3,2.6c0.3,0.7-0.2,1.4-0.8,1.5c0.1,0.4,0.3,0,0.6,0c0,0.5-0.6,0.4-0.6,0.8
		c-0.1,0.2-0.3,0.2-0.3,0.3c0.2,0.1,0.4,0,0.3-0.3c0.4,0.2,0.4-0.4,0.7-0.2c-0.3,0.7-0.9,1.3-1.2,2.1c0.4-0.2,0.7-0.8,1.1-1.2
		c-0.2,0.5-0.7,1.6-1.1,1.9c0,0.1,0.2,0.1,0.3,0.3c-0.4,0.3-0.5,1-0.8,1.5h-0.3c-0.1,0.2,0.1,0.2,0.1,0.7c-0.7,0.7-0.9,1.5-1.4,2.1
		c-0.3,2.3-2.6,4.3-3.5,6.5c-3,3.3-5.9,7.1-11.7,7.2c-1.8,0.8-2.9-0.7-4.2-1.3c-1.2-0.7-2.5-1.1-3.2-1.9c-1.4-1.3-2.3-3.3-2.5-5.2
		c-0.1-0.2-0.1-0.7-0.2-0.9c0-0.7-0.2-1.5,0-1.9c-0.2-0.2-0.3-0.5-0.4-0.7c0-0.2,0.1-0.7,0-0.9c-0.2,0.2-0.4,0.7-0.5,1
		c-0.1,0-0.1-0.1-0.2-0.1c-2.6,4.1-5.2,8.3-9.1,11.2c-0.9,0.1-1.5,0.6-2.5,0.7c-3.4-0.1-4.8-2.3-6.7-4.2c0.2-0.3-0.5-1,0-1.2
		c-0.2-0.2-0.5-0.7-0.2-1.1c0.2-0.8,0.1-1.4,0.1-2.6c0.1,0,0.2,0.2,0.2,0.2c0-0.2,0.1-0.6-0.1-0.4c-0.1-0.2,0-0.4,0.2-0.2
		c0-0.2,0-0.3-0.1-0.3c0-0.1,0.1-0.1,0.3-0.2c-0.7-1.4,0.9-3.1,0.8-4.6c0.1,0,0,0.2,0,0.3c0.2-0.1,0.6-0.8,0.1-0.9
		c0-0.5,0.2,0,0.4-0.2c0-0.9,0.4-1.2,0.2-2c0.1,0.1,0.1,0.2,0.2,0.1c0.3-1.2,1.3-2.6,1.5-4.1c0.2,0.1-0.2,0.3,0,0.7
		c0.7-1.1,0.9-2.2,1.6-3.2c0.4-0.3,0.4-0.8,0.7-1.2c0.1,0,0.1,0.1,0.3,0.2c0.1-0.4,0.4-1.1,0.9-1.5c0.1,0.1,0.1,0,0.1,0
		c0.1,0,0-0.1,0-0.1c0.3-0.7,0.8-1.1,1.2-1.4c0,0.1,0,0,0,0c0.5-1,1.3-1.7,1.9-2.4c0-0.1-0.4-0.1-0.3-0.4c0.5,0.2,1.3,0.3,1.6-0.2
		c2.9-0.8,6-0.5,7.4,1.5c-0.1,0.2-0.2,0.2-0.4,0.2c0.3,0.8,0.3,1.8,0.5,2.9c0.5-0.2,0.7-0.8,1-1.2c0.2,0.3-0.3,0.7-0.3,1.1
		c0.5-0.8,1.2-1.4,1.4-2.5c0.3,0,0.7-0.4,0.4-0.7c0.2-1.3,1.4-2.4,1.5-3.5c1.9-0.2,4.3,0,5.9,0.8c0.9,1.6-0.4,3.4-1,4.7
		c0.2,0.2,0.1,0.8-0.1,1.1V231.9z M137.7,247.5h0.2H137.7z M139.8,239.4c0,0.1-0.1,0.1-0.1,0.1C139.7,239.4,139.8,239.4,139.8,239.4
		 M139.8,240.7C140.3,240.7,139.8,240.3,139.8,240.7C139.7,240.9,139.8,240.9,139.8,240.7 M140.3,240.1
		C140.4,240,140.3,240,140.3,240.1C139.8,240.1,140.3,240.4,140.3,240.1 M141.5,237.6c-0.3-0.1-0.4,0.2-0.2,0.4
		C141.1,237.7,141.5,237.7,141.5,237.6 M141.9,253.8c1.5-0.9,2.4-2,3.2-3.5c0,0.2,0,0,0,0c1-0.8,1.4-2.1,2.3-3c0,0.2,0.3-0.1,0,0
		c0.8-1.2,1.4-2.4,2.2-3.3c0,0.5,0.4,0.1,0,0c0.2-0.7,0.5-1.3,1.1-1.8c0,0.4-0.6,0.7-0.3,1c0.1-0.3,0.8-1.1,0.3-1
		c0.3-0.8,1-2,1.5-2.5c0,0.5-0.5,0.7-0.5,1.2c0.5-0.3,0.8-1,1.1-1.6c0.1,0,0.2-0.3,0.3-0.4c-0.3,0-0.3,0.1-0.3,0.4
		c-0.3,0-0.3,0.7-0.4,0.3c0.8-1.6,1.9-3,2.6-4.7c-0.3-0.7-0.7-1.2-1-1.8c0-0.1-0.2-0.2-0.3-0.2c0-0.1,0-0.4-0.1-0.4
		c-0.4-0.7-0.5-2-1.5-2.3c-0.9,0.8-1.8,2-2,3C146.4,239.1,142.9,245.5,141.9,253.8 M142.6,234.4c-0.2,0,0-0.3,0-0.6
		C143,234.1,142.5,234.2,142.6,234.4 M144.4,232.3h-0.1c-0.1,0-0.1-0.2,0.1-0.1V232.3z M144.9,231.1v0.1h-0.3
		C144.5,231.2,144.8,231.1,144.9,231.1 M144.9,231c0.1-0.1,0.1-0.4,0.3-0.4C145.2,230.9,145.1,231,144.9,231 M146.2,249.5
		C146.4,249.5,146.1,249.2,146.2,249.5C145.8,249.5,146.2,250,146.2,249.5 M146.4,229c0.3,0.1-0.1,0.4-0.2,0.4
		C146.2,229.1,146.4,229.1,146.4,229 M146.2,229.4v0.1V229.4z M150,243.7h-0.2v0.2h0.2V243.7z M150.1,233.2H150
		C150,233.1,150.1,233.1,150.1,233.2 M151.5,241.6c-0.4,0-0.4,0.4-0.6,0.6C151.1,242.2,151.4,242,151.5,241.6 M152,229.7h0.2H152z
		 M154.1,236.9c-0.3,0.7-0.7,1.2-1.1,1.8C153.5,238.3,154.2,237.5,154.1,236.9 M154.1,234.1c0.2-0.2-0.3-0.6-0.1-0.9
		c-0.2,0-0.3-0.1-0.3-0.2C153.5,233.2,154.1,233.7,154.1,234.1 M154.4,234.3c-0.1,0.1-0.1,0-0.2,0
		C154.2,234.2,154.4,234.2,154.4,234.3 M154.3,233.4c0,0.3,0.3,0.7,0.5,0.9C154.9,233.7,154.6,233.5,154.3,233.4 M154.6,234.4
		c0,0.1-0.2,0.1-0.2,0.1S154.6,234.5,154.6,234.4 M154.6,236.5c-0.2-0.2,0.2-0.2,0.2-0.7h0.1c0-0.1,0.3-0.4,0.1-0.7
		c-0.1,0.3-0.2,0.3-0.2,0.7C154.6,235.8,154.2,236.4,154.6,236.5 M156.2,251.3c0.1-0.1,0.1-0.3,0.2-0.5
		C156.8,250.8,156.6,251.3,156.2,251.3 M156.7,232.5c0.1,0.2,0.2-0.3,0-0.2c0,0,0,0.1,0,0V232.5z M156.8,249.9c0.1,0,0.2,0,0.2-0.2
		C156.9,249.9,156.8,249.9,156.8,249.9 M157.5,231.9c0,0.2-0.2,0.3,0,0.4C157.5,232.2,157.6,232.1,157.5,231.9 M158.4,229.7
		c-0.3,0.2-0.4,0.8-0.7,1.2c-0.2-0.7,0.7-1.2,0.9-2c0.1,0,0.1,0.1,0.2,0.1C158.7,229.2,158.4,229.2,158.4,229.7 M158.9,228.5
		c0.1,0.1-0.1,0.5,0.1,0.5c0-0.2,0.3-0.4,0.3-0.7h0.1v-0.2c-0.1,0-0.1,0.1-0.1,0.2C159.3,228.5,159,228.5,158.9,228.5 M159.6,227.8
		C159.9,227.8,159.5,227.5,159.6,227.8C159.5,227.9,159.6,227.9,159.6,227.8 M181.3,245.5h0.1H181.3z M183.4,240.2
		c-0.1,0.5,0.6,0.1,0.3,0C183.6,240.1,183.4,240.2,183.4,240.2 M183.7,242.4c-0.1,0-0.3-0.1-0.1-0.2
		C183.7,242.2,183.7,242.3,183.7,242.4"/>
	<path class="st0" d="M176.4,237.3c-0.2,0.2-0.1-0.5-0.1-0.7C176.4,236.4,176.4,237.1,176.4,237.3 M176.4,238.1
		c-0.2,0.1-0.1-0.3-0.1-0.5C176.4,237.7,176.4,238,176.4,238.1 M184.2,252c0,0.1,0.1,0.1,0.1,0c0.4,0,0.4-0.2,0.7-0.2
		c-0.4,0.8-1.5,1.1-2.1,2.2c-0.1,0.1,0,0.1,0,0c0.3-0.1,0.5-0.4,1-0.4c-0.3,0.3-0.5,0.7-1,0.9c0.3,0.3,0.1,0.2,0,0.7
		c-0.1,0-0.1,0-0.1,0.1c0,0.1,0.1,0,0.1-0.1c0.3,0.2-0.8,1-0.8,1.6c0.4-0.2,0.1,1,0.5,1.4c3.4,0.2,5.8-1.8,7.6-2.2
		c0.2,0,0.3,0,0.3-0.1c1.5-1,3-2.3,4.3-3.7c0.2,0.3,0.2,0,0,0c0.3-0.5,0.9-0.2,0.9-1c0.1,0,0.1-0.2,0.1-0.3c0.1,0,0-0.1,0,0
		c-0.1,0-0.1,0.1-0.1,0.3c-0.6,0.1,0.1-0.4,0.1-0.7c0-0.3-0.5,0-0.8-0.2c-4.3-1.6-9.9-1.8-13.6-4.1c-1.1-0.9-2-2-2.9-3
		c-0.4-1.5-1.6-2.9-2-4.2c-0.3-0.1,0.1-0.1,0.1-0.2c-0.1-0.1-0.3,0-0.3-0.4c0-0.1,0-0.1,0.2,0c-0.2-2.6,1.1-3.4,1.8-5.3
		c1.1-0.7,1.3-2.1,2.6-2.6c0,0.3-0.2,0.2-0.2,0.6c0.4-0.1,0.5-0.3,0.7-0.7c0.2,0.3,0.2-0.3,0.4-0.3c0.3,0,0.3-0.4,0.4-0.5
		c0.2,0,0.2-0.1,0.2-0.1c0.1,0,0.2-0.2,0.2-0.3V229c0.2,0,0-0.1,0,0v0.1c-0.1,0.1-0.2,0.1-0.2,0.3c-0.2,0-0.2,0-0.2,0.1
		c-0.3,0-0.2,0.2-0.4,0.5c-0.2,0-0.2-0.2-0.2-0.2c2-2.2,4.4-4.1,6.9-5.9c0.1-0.1,0.1-0.2,0.1-0.4c0.9-0.2,1.4-0.9,2.1-1.2
		c0.3,0,0.1,0.3,0.1,0.5c0.4-1.1,2.2-2.2,3.6-2.3c0,0.5-0.8,0.1-0.8,0.5c0.3,0.1,0.8,0,1.1-0.4c0-0.3-0.8-0.1-0.8-0.7
		c0-0.3,0.3,0.3,0.5,0.2c0.2,0-0.1-0.3,0-0.5c0.1,0.1,0.8,0.3,0.9,0c2.6,1,8.1,0.3,8.4,4.6c-0.7,0.8-0.8,2.3-1.4,3.3
		c-0.4,0.1,0-0.3-0.2-0.3c-0.3,0-0.2,0.3-0.2,0.4c-0.1,0-0.1-0.1-0.1-0.2c-0.2,0-0.1,0.4-0.2,0.7c-0.1,0-0.1-0.2-0.1-0.3
		c-0.2,0.1-0.2,0.5-0.4,0.7c-0.1-0.1,0-0.7-0.1-0.7c-0.3,0.4-0.4,0.4-0.7,0.7c-0.1,0-0.1-0.1-0.1-0.3c-0.3,0-0.2,0.4-0.3,0.7
		c-0.2-0.3-0.7-0.5-0.8,0.1c-0.2-1.1,0.2-2,0.1-3.2c-6.1,3.2-11.2,7.7-15.7,12.5c-0.4,1.2-1.1,2.1-1.8,3.2c0.1,0.6,0,0.8-0.2,1.2
		c1,0.8,3,1.3,4.4,1.3c5.7,1.3,10.8,3.1,14,6.7c0.7,1.2,1.6,2.1,1.2,3.6c-0.7,3-4.3,5.6-6.9,6.5c-2.3,1.4-5.2,2.1-8.4,2.3
		c-0.3-0.3-0.8-0.3-1.4-0.3c-3.3-0.7-4.6-3.5-6.5-5.8c0.2-0.3-0.3-0.4-0.5-0.9c0.2-0.2,0.5,0.1,0.7,0.2c0.1-0.3,0.4-0.9,0.2-1.1
		c1.8-2,3.7-3.8,6.4-4.9c0,0.3,0.1,0.4,0.2,0.5c0,0.4-0.3,0.4-0.7,0.5c0.2,0.2,0.4-0.1,0.6,0.1c0,0.4-0.3,0.4-0.6,0.7H184.2z
		 M178.2,255.3c-0.1,0-0.1,0.1-0.1,0.1c-0.1,0,0-0.1-0.1-0.2C178.2,255.2,178.2,255.2,178.2,255.3 M178.9,233.4
		C179,233.4,178.9,233.2,178.9,233.4C178.8,233.5,178.9,233.5,178.9,233.4 M179.3,232.7c-0.1,0.1-0.5,0.4-0.1,0.4
		C179,233,179.7,232.8,179.3,232.7 M179.4,233.5c-0.1,0-0.1,0.1-0.1,0.2c-0.4,0,0,0.4,0,0C179.4,233.7,179.4,233.6,179.4,233.5
		c0.1,0,0.1,0,0.1-0.1c0.1,0,0-0.2,0,0C179.4,233.4,179.4,233.5,179.4,233.5 M180,232.8c-0.3,0-0.3,0.2-0.4,0.3
		C180,233.2,179.9,233,180,232.8 M181,252.2h-0.1C181,252.3,181,252.2,181,252.2 M181,230.5c0-0.2,0.2-0.4,0.5-0.4
		c0,0.1,0,0.2-0.1,0.3C181.2,230.3,181.2,230.5,181,230.5 M181.4,231.2c1.1-0.9,2-1.8,2.8-2.7C183.3,229.2,182.2,230.2,181.4,231.2
		C181,231.2,181.4,231.6,181.4,231.2 M182.2,257.4c-0.1,0.1-0.2,0.3-0.2,0.4C182.2,257.9,182.3,257.4,182.2,257.4 M182.7,250.8
		c0,0.1-0.1,0.1-0.1,0.1C182.6,250.8,182.7,250.8,182.7,250.8 M183.5,250.5c0.1-0.3,0.3-0.4,0.5-0.4
		C183.9,250.2,183.9,250.5,183.5,250.5 M184.3,227.8c-0.1-0.1-0.3-0.1-0.3,0.1C184.2,228.1,184.3,227.9,184.3,227.8 M184.3,250.1
		h-0.1H184.3z M184.5,227.7c0-0.2,0.4,0,0.3-0.4c0.4,0,0-0.3,0,0C184.7,227.3,184.2,227.5,184.5,227.7 M184.5,228.3
		c0.2-0.1,0.9-0.5,0.8-0.8c-0.1,0.2-0.4,0.3-0.7,0.3C184.6,228.1,184.6,228.2,184.5,228.3 M184.9,257.5c0,0.2-0.1,0.2-0.1,0.2
		C184.8,257.5,184.9,257.5,184.9,257.5 M185.4,226.8v0.1c-0.2,0,0,0.1,0,0V226.8c0.1,0,0.1,0,0.1-0.2c0.3,0,0.4,0,0.4-0.2
		c-0.3,0-0.3,0.1-0.4,0.2C185.5,226.6,185.4,226.6,185.4,226.8 M185.9,227.1c-0.3,0-0.4,0.3-0.6,0.4
		C185.8,227.6,185.8,227.3,185.9,227.1c0.1,0,0.1,0,0.1-0.1c0.1,0,0-0.1,0,0L185.9,227.1z M186.1,225.9c0,0.2-0.1,0.3,0,0.4
		C186.1,226.3,186.2,226.1,186.1,225.9 M186.5,226.9c0.2-0.5,0.8-0.5,1-1.1c0.4,0,0-0.3,0,0C186.9,226.1,186.2,226.5,186.5,226.9
		 M186.8,257.2c0,0.1-0.2,0.1-0.3,0.1C186.6,257.2,186.7,257.2,186.8,257.2 M186.9,225.3c-0.1,0.3-0.3,0.3-0.3,0.5
		C186.8,225.8,187.3,225.5,186.9,225.3 M187.8,224.8c-0.3,0-0.5,0.3-0.3,0.4C187.3,225.1,187.9,225.2,187.8,224.8 M188.2,225.2
		c-0.1,0-0.2,0-0.2,0.1C188.1,225.3,188.2,225.3,188.2,225.2 M189.2,256.5h-0.1v0.2h0.1V256.5z M190.1,223.7
		c-0.1,0.1-0.3,0.1-0.3,0.4C190,224.2,190.1,224,190.1,223.7 M189.9,223.5h0.2c0.1-0.2,0.1-0.3-0.1-0.3c0,0,0,0.1-0.1,0V223.5z
		 M190.6,223.6c-0.2,0-0.4,0-0.4,0.1C190.5,223.7,190.5,223.7,190.6,223.6 M191.7,222.9c-0.4,0.1-0.5,0.2-0.7,0.3
		C191.4,223.3,191.5,223.1,191.7,222.9 M191.2,222.6c0.3-0.1,0.7-0.3,0.9-0.4c-0.1-0.2-0.1-0.2-0.2-0.2c0-0.1-0.1,0,0,0
		C191.7,222.3,191.3,222.3,191.2,222.6 M191.9,222.6c0.2,0.2,0.4,0,0.2-0.1C192.1,222.5,191.9,222.5,191.9,222.6
		C191.5,222.6,191.9,223.2,191.9,222.6 M193.2,221.3c-0.4,0.2-0.8,0.3-1,0.7C192.6,221.9,193,221.8,193.2,221.3 M193,222
		c0,0.2-0.4,0-0.3,0.3C192.8,222.3,193.3,222.2,193,222 M193.2,222.6c-0.3,0-0.3,0-0.4,0.2C193,222.9,193.2,222.9,193.2,222.6
		c0.1,0,0.1-0.1,0.1-0.1c0.2-0.1,0-0.1,0,0C193.3,222.5,193.2,222.5,193.2,222.6 M193.4,221.5c0-0.2,0.1-0.2,0.1-0.3
		c-0.1,0-0.1-0.1-0.2-0.1v0.4H193.4z M193.8,222.2c0.2,0.1,0.3,0,0.3-0.2C193.9,222,193.9,222,193.8,222.2
		C193.7,222.3,193.9,222.3,193.8,222.2 M199.7,225.3c-0.3,0.4-0.3,1.8,0.1,2C199.8,226.6,200,225.7,199.7,225.3 M199.6,227.5
		c0.1,0.2,0,0.3,0.2,0.3C199.8,227.6,199.7,227.6,199.6,227.5"/>
	<path class="st0" d="M225.5,256.5c0.1-0.3-0.5-0.4,0-0.4c0-0.2-0.4-0.1-0.4-0.2c-0.1-0.3,0.3-0.5,0-0.5c0.2-0.4,0.3,0,0.4,0
		c0.1-0.4-0.4-0.2-0.2-0.5c0.3,0,0.2-0.5,0.3-0.8c-0.5,0,0,0.5-0.3,0.5c-0.2-0.4-0.3-1,0.2-1.1c-0.5-0.3-0.1-0.8,0.1-1.3
		c0-0.1-0.1,0.1-0.2,0c0.1-0.1,0-0.5,0.2-0.2c-0.1-0.6-0.3-1.2-0.2-1.8c0.5,0,0,0.3,0.2,0.4c0.1-0.1,0.1-0.3,0.3-0.5
		c-0.2-0.1-0.4-0.4-0.5-0.1c-0.4-0.3,0.3-0.1,0.2-0.4c0.1,0,0.1,0.1,0.3,0.1c0.2-0.2-0.3-0.2-0.4-0.4c0.4-0.3-0.2-1,0.4-1
		c-0.2,0.3-0.3,0.8,0,1.1c0.1-0.4,0.3-1.2-0.2-1.3c0.2-0.3,0.3-0.4,0.4-0.7c-0.2-0.5-0.4-1-0.2-1.4c0.1,0.1,0.1,0.3,0.2,0.4
		c0.2,0,0.1-0.7-0.2-0.4v-1c0.2,0,0.2,0.3,0.1,0.4c0.6,0,0.2-0.5,0.2-0.7c-0.1,0-0.1,0-0.1,0.1c-0.1-0.1-0.2-0.5-0.1-0.8
		c0.2,0.1,0.1,0.1,0.1,0.3c0.6-0.4,0.6-2.1,0.4-3.3c-0.2,0.2,0,0.5-0.4,0.5c0.2-0.2,0.2-0.5,0.2-1c0.2,0,0.2,0.1,0.2,0.3
		c0.4-0.2,0.1-1.3,0.3-1.6c-0.7-0.6-0.2-2.2,0.5-2.4c-0.2-0.2-0.2,0-0.5-0.1c0-0.3,0.4-0.1,0.4-0.4c-0.1-0.1-0.1,0.1-0.4,0
		c0.1-0.1,0-0.3-0.1-0.3c0-0.2,0.4-0.2,0.2-0.6c0.2,0,0.2,0.1,0.2,0.2c0.3-0.3-0.3-1.3,0.1-2c0.3,0-0.1,0.4,0.1,0.5
		c0.4-0.1,0.2-0.5,0.2-0.8c-0.1-0.3-0.1,0.2-0.3,0.1c-0.1-0.4,0.1-0.4,0.5-0.4c-0.9-0.7-0.2-1.6,0.1-2.6h0.2v-0.3
		c-0.2,0-0.2,0.2-0.2,0.3c-0.3-0.1,0-0.7,0-0.9c0.1,0,0.1,0.1,0.1,0.4c0.2-0.2,0.5-1.3,0.2-1.5c0.4-0.2,0.4-1,0.3-1.1
		c0.2,0,0.3-0.5,0.1-0.5c0-0.1,0.1-0.3,0.1-0.4c-0.1-0.1-0.1,0-0.3,0c0.1-0.3,0.2-0.8,0.2-1.2c0.1-0.1,0.2,0.2,0.4-0.1
		c-0.4-0.1-0.3-0.7-0.2-0.9h0.4c0-0.3,0-0.7-0.4-0.5c0.4-0.8,0.2-1.9,0.9-2.1c-0.2,0-0.2-0.3-0.3-0.4c0.1-0.1,0.4-0.1,0.5-0.3
		c-0.1-0.2-0.1-0.3-0.2-0.3V220c0.2-0.1,0.1,0.2,0.2,0.4c0.2-0.1,0.1-0.8,0.2-1.1c-0.3-0.1,0,0.4-0.3,0.3c0.1-0.8,0.3-1.3,0.3-2.1
		c0.2,0,0.3,0.1,0.3,0.1c0.2-0.1,0.1-0.4,0.2-0.7c-0.2,0-0.3,0.1-0.3,0.3c0.1-0.8,0-1.8,0.7-2.3c0-0.4-0.4-0.3-0.3-0.7
		c0.1,0,0.3,0.1,0.4,0.1c-0.3-0.4-0.1-0.8,0.1-1.3h0.2c-0.1-0.1-0.2,0-0.2,0c-0.1-0.1,0-1.1,0.2-1.1c0-0.2-0.1-0.3,0-0.7
		c0.5-1.3,0.4-3.1,1.1-4.2c-0.2-0.9,0.4-1.8,0-2.5c0.2,0,0.4,0.1,0.7,0.3c1.8-1,4.1,0,5.7,0.2c0.2,0.2,0.2,0.8,0.7,0.9
		c0.1,1.9,0.3,3.8-0.2,5.2c-0.8,7.2-2.2,14.9-3.7,21.7c0,0.1,0,0.3,0.1,0.3c-0.5,1.8-0.3,4.3-1.1,6.3c0,2.1-0.9,4.4-0.7,6.4
		c-0.6,0.9,0,3.2-0.8,4.1c0.1,4.5-1.2,11.3,0.9,15.8c1.9-0.8,2.5-2.9,4.3-4c0,0.1,0,0.1,0.1,0.1c-0.2,0.5,0.4,1.2-0.1,1.8
		c0,0.2,0.1-0.3,0.3-0.1c-0.7,0.8,0.2,1.5-0.3,2.7h0.3c0,0.2-0.2,0.2-0.3,0.5c0.1,0.1,0.1-0.2,0.3,0c0,0.7-0.7,0.8-0.9,1
		c0,0.1,0.1,0.1,0.2,0.1c-1,0.9-2.9,1.2-4.4,1.2c0-0.2-0.4-0.1-0.4-0.2c-2.2-0.8-4.6-1.4-6-3c-0.8-1.1-1.8-2.6-1.7-4.2
		c-0.4-0.8-0.1-2-0.7-2.7c0.2,0,0.3,0,0.3-0.1c-0.4-0.9,0-1.6-0.1-2.5H225.5z M225.4,256.9c0.1,0.3,0,0.4,0.1,0.5
		C225.6,257.2,225.6,257.1,225.4,256.9 M225.4,259.5c0-0.1,0.1,0.2,0.1,0C225.5,259.4,225.4,259.4,225.4,259.5 M225.7,247.4
		c0,0,0.2-0.1,0.2-0.4C226.1,247,226.1,247.7,225.7,247.4 M226,256.1c0.1,0.1-0.3,0.4,0,0.6C226.1,256.5,226.2,256.1,226,256.1
		 M226,252.7c0,0.5-0.2,1.1,0,1.4C226.1,253.8,226.4,252.9,226,252.7 M226,254.2c0.1,0.4-0.2,0.3,0,0.5
		C226.2,255.1,226.2,254.2,226,254.2 M226,251.9c0.1,0,0.2,0,0.2-0.1C226.1,251.8,226,251.8,226,251.9 M226.1,255.3H226v0.2h0.1
		V255.3z M226.3,250.3c-0.2,0.3-0.3,1.1-0.1,1.3C226.2,251.2,226.6,250.6,226.3,250.3 M226.3,243.7c-0.3,0,0-0.2-0.1-0.7
		C226.3,242.8,226.4,243.6,226.3,243.7 M226.4,242c0,0.1,0,0.3-0.2,0.2v-0.4C226.3,242,226.3,242,226.4,242 M226.4,248.7
		c-0.1,0.4-0.3,1.1-0.1,1.4C226.4,249.6,226.6,249.3,226.4,248.7 M226.4,248c0,0.3-0.2,0.2-0.1,0.5C226.7,248.6,226.7,248,226.4,248
		 M226.4,246.9c0,0.1-0.2,0.7,0.2,1C226.6,247.3,226.8,247.2,226.4,246.9 M226.6,239.5c0.1,0,0.1,0.2,0.1,0.5h-0.1
		C226.4,239.8,226.4,239.8,226.6,239.5 M226.6,240.3c-0.2,0-0.2-0.2,0-0.2C226.6,240.2,226.7,240.2,226.6,240.3 M226.7,246.3
		c0-0.4,0.1-0.7,0-1h0.1c-0.2-1,0.4-1.6,0-1.9c0,0.5-0.4,1.2-0.1,1.9C226.6,245.3,226.3,246.3,226.7,246.3 M227.3,238h-0.3
		c-0.1,0.4-0.1,0.7-0.1,1C227.4,238.9,227.1,238.2,227.3,238 M227.3,240.1c-0.3,1.2-0.5,2.1-0.3,3.3
		C226.9,242.2,227.4,241.3,227.3,240.1 M227.4,237.7c0-0.2-0.3-0.2,0-0.3c-0.4-0.2-0.5,0.3-0.3,0.4
		C227.1,237.7,227.3,237.7,227.4,237.7 M227.5,238.4c0,0.4-0.5,1.3,0,1.6C227.3,239.3,228,238.8,227.5,238.4 M227.5,235.8h-0.1v0.3
		h0.1V235.8z M227.5,234.3c-0.1,0.1-0.1,0.5,0.1,0.5C227.7,234.5,227.7,234.5,227.5,234.3 M227.6,237.1c0.1,0.4-0.3,0.9-0.1,1.2
		C227.6,238,228,237.5,227.6,237.1 M227.9,231.7c0,0.4-0.3,0.3-0.2,0.7C228.2,232.4,228.2,231.7,227.9,231.7 M227.7,237
		c0.4-2.5,0.9-5.2,1.2-7.9c0.3-0.2,0.3-0.8,0.3-1.2c-0.3,0.2-0.4,1.1-0.3,1.2C228.3,231.9,227.7,234,227.7,237 M228.2,230.9
		c-0.4,0.1-0.1,0.5-0.2,0.8C228.3,231.6,228.2,231.2,228.2,230.9 M228.2,229.5c-0.1,0,0-0.3-0.1-0.4
		C228.6,229.1,228.2,229.4,228.2,229.5 M228.3,228.3c0-0.2,0.1-0.2,0.1-0.5C228.8,227.7,228.6,228.3,228.3,228.3 M228.7,227.5
		c-0.4,0-0.1-0.7,0.1-0.5C228.8,227,228.7,227,228.7,227.5 M229.2,223.8c0,0.3-0.2,0.3-0.2,0.4C228.8,224.3,228.9,223.8,229.2,223.8
		 M229,225.8h-0.1v0.4h0.1V225.8z M229.4,227.2H229v0.2h0.3V227.2z M230,223.3c-0.5,1-0.5,2.5-0.8,3.6
		C229.9,226.4,229.9,224.2,230,223.3 M229.7,222c-0.2,0.4-0.2,1-0.3,1.5C229.7,223.5,230,222.2,229.7,222 M230.1,222.2
		c0,0.3-0.1,0.7-0.1,1C230.2,223.2,230.6,222.2,230.1,222.2 M230.4,221.1c0,0.2-0.1,0.7-0.2,1.1
		C230.6,222.2,230.7,221.2,230.4,221.1 M230.2,218.7c0.1,0,0.3,0,0.3-0.1C230.4,218.6,230.2,218.6,230.2,218.7 M230.7,220.9
		c0-0.2,0-0.4-0.1-0.3c0,0.1-0.2,0.1-0.2,0.3H230.7z M230.7,217.9h-0.1v0.1h0.1V217.9z M230.6,220.4c0.2,0.1,0.2-0.4,0.1-0.4
		c0,0.2-0.1,0.2-0.1,0.2V220.4z M230.9,218.3c0,0.3-0.1,0.7-0.2,1C231,219.2,231.3,218.3,230.9,218.3 M231.2,215.8h-0.3v0.2h0.3
		V215.8z M231.5,215.8c0,0.2-0.1,0.7-0.2,1.1C231.6,216.7,231.9,215.8,231.5,215.8 M231.2,217.4h0.1H231.2z M231.7,215.3h-0.1v0.1
		h0.1V215.3z M232.1,214h-0.2v0.3h0.2V214z"/>
	<path class="st0" d="M265.5,231.9c-0.2,0,0,0.2,0,0.2c-0.7,2-1.1,4.4-1.9,6.3c0,3-0.3,5.4-0.3,8.4c0.4,2.9,0.4,6.6,2.4,8.7
		c4.4-2,6.7-5.9,9.8-9.2c-0.1-0.3,0.2-0.3,0.2-0.8c0.3,0,0.1-0.4,0.6-0.2c1.8-2.9,3.7-5.3,5.5-7.9c0-0.2-0.2-0.2-0.1-0.3
		c0.4,0.1,0.8-0.3,0.7-1c0.3,0,0.4-0.3,0.5,0c0-1,0.8-1.3,1.1-1.6c0.7-1,1.8-2.5,2.7-3.6c0.1,0.2,0.2,0.3,0.3,0.4
		c-0.1,0.7-0.2,1.1,0,1.6c-0.3,0.9-0.8,1.9-1.3,2.6c0.3,0.7-0.2,1.4-0.8,1.5c0.1,0.4,0.3,0,0.5,0c0,0.5-0.5,0.4-0.5,0.8
		c-0.1,0.2-0.3,0.2-0.3,0.3c0.2,0.1,0.4,0,0.3-0.3c0.4,0.2,0.4-0.4,0.7-0.2c-0.3,0.7-0.9,1.3-1.2,2.1c0.4-0.2,0.7-0.8,1.1-1.2
		c-0.2,0.5-0.7,1.6-1.1,1.9c0,0.1,0.2,0.1,0.3,0.3c-0.4,0.3-0.5,1-0.8,1.5h-0.3c-0.1,0.2,0.1,0.2,0.1,0.7c-0.7,0.7-0.9,1.5-1.4,2.1
		c-0.3,2.3-2.6,4.3-3.5,6.5c-3,3.3-5.9,7.1-11.7,7.2c-1.8,0.8-2.8-0.7-4.2-1.3c-1.2-0.7-2.5-1.1-3.2-1.9c-1.4-1.3-2.3-3.3-2.5-5.2
		c-0.1-0.2-0.1-0.7-0.2-0.9c0-0.7-0.2-1.5,0-1.9c-0.2-0.2-0.3-0.5-0.4-0.7c0-0.2,0.1-0.7,0-0.9c-0.2,0.2-0.4,0.7-0.6,1
		c-0.1,0-0.1-0.1-0.2-0.1c-2.6,4.1-5.2,8.3-9.1,11.2c-0.9,0.1-1.5,0.6-2.5,0.7c-3.4-0.1-4.8-2.3-6.7-4.2c0.2-0.3-0.6-1,0-1.2
		c-0.2-0.2-0.6-0.7-0.2-1.1c0.2-0.8,0.1-1.4,0.1-2.6c0.1,0,0.2,0.2,0.2,0.2c0-0.2,0.1-0.6-0.1-0.4c-0.1-0.2,0-0.4,0.2-0.2
		c0-0.2,0-0.3-0.1-0.3c0-0.1,0.1-0.1,0.3-0.2c-0.7-1.4,0.9-3.1,0.8-4.6c0.1,0,0,0.2,0,0.3c0.2-0.1,0.6-0.8,0.1-0.9
		c0-0.5,0.2,0,0.4-0.2c0-0.9,0.4-1.2,0.2-2c0.1,0.1,0.1,0.2,0.2,0.1c0.3-1.2,1.3-2.6,1.5-4.1c0.2,0.1-0.2,0.3,0,0.7
		c0.7-1.1,0.9-2.2,1.7-3.2c0.4-0.3,0.4-0.8,0.7-1.2c0.1,0,0.1,0.1,0.3,0.2c0.1-0.4,0.4-1.1,0.9-1.5c0.1,0.1,0.1,0,0.1,0
		c0.1,0,0-0.1,0-0.1c0.3-0.7,0.8-1.1,1.2-1.4c0,0.1,0,0,0,0c0.5-1,1.3-1.7,1.9-2.4c0-0.1-0.4-0.1-0.3-0.4c0.5,0.2,1.3,0.3,1.6-0.2
		c2.9-0.8,6-0.5,7.4,1.5c-0.1,0.2-0.2,0.2-0.4,0.2c0.3,0.8,0.3,1.8,0.6,2.9c0.5-0.2,0.7-0.8,1-1.2c0.2,0.3-0.3,0.7-0.3,1.1
		c0.5-0.8,1.2-1.4,1.4-2.5c0.3,0,0.7-0.4,0.4-0.7c0.2-1.3,1.4-2.4,1.5-3.5c1.9-0.2,4.3,0,5.9,0.8c0.9,1.6-0.4,3.4-1,4.7
		c0.2,0.2,0.1,0.8-0.1,1.1V231.9z M238,247.5h0.2H238z M240.1,239.4c0,0.1-0.1,0.1-0.1,0.1C240,239.4,240.1,239.4,240.1,239.4
		 M240.1,240.7C240.6,240.7,240.1,240.3,240.1,240.7C240,240.9,240.1,240.9,240.1,240.7 M240.6,240.1
		C240.7,240,240.6,240,240.6,240.1C240.1,240.1,240.6,240.4,240.6,240.1 M241.8,237.6c-0.3-0.1-0.4,0.2-0.2,0.4
		C241.4,237.7,241.8,237.7,241.8,237.6 M242.2,253.8c1.5-0.9,2.4-2,3.2-3.5c0,0.2,0,0,0,0c1-0.8,1.4-2.1,2.3-3c0,0.2,0.3-0.1,0,0
		c0.8-1.2,1.4-2.4,2.2-3.3c0,0.5,0.4,0.1,0,0c0.2-0.7,0.5-1.3,1.1-1.8c0,0.4-0.6,0.7-0.3,1c0.1-0.3,0.8-1.1,0.3-1
		c0.3-0.8,1-2,1.5-2.5c0,0.5-0.6,0.7-0.6,1.2c0.6-0.3,0.8-1,1.1-1.6c0.1,0,0.2-0.3,0.3-0.4c-0.3,0-0.3,0.1-0.3,0.4
		c-0.3,0-0.3,0.7-0.4,0.3c0.8-1.6,1.9-3,2.6-4.7c-0.3-0.7-0.7-1.2-1-1.8c0-0.1-0.2-0.2-0.3-0.2c0-0.1,0-0.4-0.1-0.4
		c-0.4-0.7-0.5-2-1.5-2.3c-0.9,0.8-1.8,2-2,3C246.7,239.1,243.2,245.5,242.2,253.8 M242.9,234.4c-0.2,0,0-0.3,0-0.6
		C243.3,234.1,242.8,234.2,242.9,234.4 M244.7,232.3h-0.1c-0.1,0-0.1-0.2,0.1-0.1V232.3z M245.2,231.1v0.1h-0.3
		C244.8,231.2,245.1,231.1,245.2,231.1 M245.2,231c0.1-0.1,0.1-0.4,0.3-0.4C245.5,230.9,245.4,231,245.2,231 M246.5,249.5
		C246.7,249.5,246.4,249.2,246.5,249.5C246,249.5,246.5,250,246.5,249.5 M246.7,229c0.3,0.1-0.1,0.4-0.2,0.4
		C246.5,229.1,246.7,229.1,246.7,229 M246.5,229.4v0.1V229.4z M250.3,243.7h-0.2v0.2h0.2V243.7z M250.4,233.2h-0.1
		C250.3,233.1,250.4,233.1,250.4,233.2 M251.7,241.6c-0.4,0-0.4,0.4-0.6,0.6C251.4,242.2,251.6,242,251.7,241.6 M252.3,229.7h0.2
		H252.3z M254.4,236.9c-0.3,0.7-0.7,1.2-1.1,1.8C253.8,238.3,254.5,237.5,254.4,236.9 M254.4,234.1c0.2-0.2-0.3-0.6-0.1-0.9
		c-0.2,0-0.3-0.1-0.3-0.2C253.8,233.2,254.4,233.7,254.4,234.1 M254.7,234.3c-0.1,0.1-0.1,0-0.2,0
		C254.5,234.2,254.7,234.2,254.7,234.3 M254.6,233.4c0,0.3,0.3,0.7,0.5,0.9C255.1,233.7,254.9,233.5,254.6,233.4 M254.9,234.4
		c0,0.1-0.2,0.1-0.2,0.1S254.9,234.5,254.9,234.4 M254.9,236.5c-0.2-0.2,0.2-0.2,0.2-0.7h0.1c0-0.1,0.3-0.4,0.1-0.7
		c-0.1,0.3-0.2,0.3-0.2,0.7C254.9,235.8,254.5,236.4,254.9,236.5 M256.5,251.3c0.1-0.1,0.1-0.3,0.2-0.5
		C257.1,250.8,256.9,251.3,256.5,251.3 M257,232.5c0.1,0.2,0.2-0.3,0-0.2c0,0,0,0.1,0,0V232.5z M257.1,249.9c0.1,0,0.2,0,0.2-0.2
		C257.2,249.9,257.1,249.9,257.1,249.9 M257.8,231.9c0,0.2-0.2,0.3,0,0.4C257.8,232.2,257.9,232.1,257.8,231.9 M258.7,229.7
		c-0.3,0.2-0.4,0.8-0.7,1.2c-0.2-0.7,0.7-1.2,0.9-2c0.1,0,0.1,0.1,0.2,0.1C259,229.2,258.7,229.2,258.7,229.7 M259.2,228.5
		c0.1,0.1-0.1,0.5,0.1,0.5c0-0.2,0.3-0.4,0.3-0.7h0.1v-0.2c-0.1,0-0.1,0.1-0.1,0.2C259.5,228.5,259.3,228.5,259.2,228.5
		 M259.9,227.8C260.2,227.8,259.8,227.5,259.9,227.8C259.8,227.9,259.9,227.9,259.9,227.8 M281.6,245.5L281.6,245.5L281.6,245.5z
		 M283.7,240.2c-0.1,0.5,0.5,0.1,0.3,0C283.9,240.1,283.7,240.2,283.7,240.2 M284,242.4c-0.1,0-0.3-0.1-0.1-0.2
		C284,242.2,284,242.3,284,242.4"/>
	<path class="st0" d="M302.7,227.9c0.7,0.5,0.1-0.4,0.1-1c-0.2,0-0.5,0-0.4,0.3c-0.2-0.2-0.1-0.9-0.4-0.9c1.3-0.7,4.8-1.8,6.1,0.6
		c-0.1,0.1-0.4,0.1-0.4,0.5c-0.1,0.2,0.2,0.3,0.2,0.4c-0.3,2.5,0.7,4.9,0.7,7c-0.2,2.2,0,4.4,0.3,6c0.5,4.1,0.3,9,1.3,12.9
		c-0.1,0-0.1,0.2-0.1,0.3c0.1,0,0.1-0.2,0.1-0.3c0.3,0-0.1,0.5,0.1,0.3c0.2-0.7,0.9-0.8,1-1.4c-0.1,0-0.1,0.3-0.4,0.3
		c0.5-0.5,0.8-1.2,1.1-1.9c-0.3,0-0.3-0.5,0.1-0.3c0.1-0.4,0.1-0.9,0.2-1.3c0,0.3,0,0.4,0.2,0.4c0.2-1.1,0.9-1.9,0.8-3.1
		c0.1,0,0.1,0,0.2-0.1c0,0.1,0.1,0.1,0.1,0.1c0-0.1-0.1,0-0.1-0.1c-0.2-0.1,0-0.3,0-0.5c0.1,0,0.1,0.2,0.1,0.3
		c0.7-1,0.9-2.4,1.6-3.2c0-0.1-0.1-0.2-0.1-0.4c1.3-2.3,2.4-4.9,3.6-7.6c0.3,0,0.3-0.1,0.5-0.1c-0.1-0.2-0.1-0.4-0.1-0.7
		c0.2,0,0.2-0.3,0.5-0.2c0-0.4-0.4-0.1-0.4-0.2c0-0.6,0.1-0.2,0.6-0.2c0.2-1.2,1.3-2.5,1.5-3.8c0.1,0,0.3,0,0.3,0.2
		c0.2-0.5,0.8-0.9,0.8-1.6c0.1-0.3,0.1,0,0.3,0.1c0.4-0.5,0.2-1.2,0.5-1.6c0.1,0,0.1,0.2,0.1,0.3c0.2,0,0.3-0.1,0.3-0.6
		c0.1,0,0.2,0,0.2-0.1c-0.1-0.1-0.2,0-0.2,0.1c0-0.8,1.5-1.5,1.4-2.5c0.1-0.2,0.2-0.2,0.4-0.1c-0.3-0.2,0-0.7,0.2-1.1
		c0.5,0.2-0.1,0.4-0.1,0.9c0.3,0,1-1,0.3-1c0.2-0.1,0.3-0.2,0.4-0.5c0.4-0.1,0,0.4,0.2,0.4c0.2-0.2,0.2-0.8,0.4-0.9
		c0.2-0.2,0.1,0.2,0.2,0.2c0.3-0.1-0.1-0.6,0.2-0.8c0.8-0.3,1.3-0.7,2-1.1c1.4,0,2.3,0.4,3.3,1c0,0.4,0.2,0.8,0.7,0.9
		c-0.2,2.2-1.3,3.3-2.3,4.6c0.1,0.1,0.1,0.2,0.1,0.6c-2.6,2.8-4.2,6.7-6.2,9.9c-3,5.6-5.3,11.7-7.9,17.8c-1,2.5-1.9,4.8-4.3,5.9
		c-0.2,0.1-0.4,0.1-0.4,0.3c-0.9,0.2-1.1,0.2-1.6,0.3c-0.1-0.1-0.3-0.3-0.8-0.1c-0.5-0.2-0.9-0.4-1.8-0.3c0-0.3-0.2-0.3-0.7-0.2
		c0-0.3-0.2-0.4-0.4-0.3c-0.9-0.4-1.3-1.3-2.5-1.4c0.1-0.3-0.3-0.2-0.1-0.5c0.2-0.1,0.1,0.3,0.3,0.3c-0.1-0.7-0.5-2-0.5-3.3
		c0-0.1-0.1,0.1-0.3,0c0-0.3,0.2-0.1,0.2-0.4c-0.8-7.1-1.4-14-1.4-21.7c0-0.2-0.4,0-0.4-0.3c0.5-0.7,0.5-3.1,0.3-3.8
		C302.7,229.1,302.5,228.5,302.7,227.9 M302.3,229c-0.2,0-0.1-0.4-0.1-0.5C302.3,228.5,302.3,228.8,302.3,229 M302.5,227.8
		c-0.3,0.1-0.2-0.3-0.2-0.5C302.7,226.9,302.5,227.6,302.5,227.8 M302.5,232.3c-0.4,0,0-0.2-0.2-0.2
		C302.5,231.6,302.7,232.2,302.5,232.3 M302.5,233.7h-0.2H302.5z M302.5,234.4c0,0.1-0.2,0.1-0.2,0.1
		C302.3,234.4,302.5,234.4,302.5,234.4 M302.5,231c-0.3-0.4,0-1.1,0.1-1.4C302.8,229.9,302.7,230.5,302.5,231 M302.9,232.2
		c0,0.3-0.2,1,0.1,1C303,232.8,303.3,232.2,302.9,232.2 M302.9,237.5c0,0.1,0,0.2,0.1,0.2C303,237.6,303,237.5,302.9,237.5
		 M302.9,238.1c0,0.2,0.1,0.3,0.3,0.3C303.2,238.3,303.3,238,302.9,238.1 M303,239.4v0.2C303.4,239.8,303.4,239.3,303,239.4
		 M303.4,240.1h-0.2v0.2h0.2V240.1z M303.4,241.3c0-0.2-0.1-0.3-0.2-0.2c0,0.2,0,0.3,0.1,0.3C303.3,241.4,303.3,241.3,303.4,241.3
		 M303.3,241.6c0,0.3,0,0.8,0.1,0.6C303.4,242.1,303.4,241.4,303.3,241.6 M303.4,249.5h-0.1v-0.1h0.1V249.5z M303.9,244.8h-0.4v0.4
		C303.9,245.2,303.6,244.9,303.9,244.8 M303.4,245.7c0.2,0.4,0,1.2,0.2,1.8C303.9,246.9,304,246,303.4,245.7 M303.9,249
		c-0.2,0.4-0.2,1,0.1,1.1C304,249.5,303.9,249.3,303.9,249 M304,250.5c0,0.2,0,0.7,0.1,0.8C304.1,251,304.3,250.3,304,250.5
		 M304.1,252.7v0.2C304.5,253.1,304.5,252.5,304.1,252.7 M304.3,253.8c0,0.1-0.2,0.4,0,0.4C304.3,254.1,304.6,253.9,304.3,253.8
		 M304.5,255.9c0,0.3,0.1,0.7,0.2,0.7C304.7,256.4,304.8,255.9,304.5,255.9 M305,251.5c0-0.2-0.1-0.2-0.2-0.3c0,0.1-0.1,0.1-0.1,0.2
		C304.7,251.4,304.7,251.5,305,251.5 M310.4,253.8c-0.3-0.2,0.1-0.6,0.1-0.9C310.8,253.1,310.4,253.5,310.4,253.8 M310.6,254.5
		C310.4,254.6,310.6,254.6,310.6,254.5c0.1,0,0.1-0.2,0.1-0.3c0.1-0.1,0-0.1,0,0C310.6,254.1,310.6,254.2,310.6,254.5 M311.3,251.6
		c-0.1,0.2-0.1,0-0.2,0C311.1,251.5,311.3,251.5,311.3,251.6 M311.2,251.3c0.1-0.7,0.7-1.2,0.7-2.1
		C312.2,249.5,311.5,250.8,311.2,251.3 M312.2,249.6c0,0,0-0.1,0.2-0.1C312.4,249.5,312.4,249.6,312.2,249.6 M312.4,248.7
		c0.3,0.1,0,0.6,0,0.8C312.2,249.2,312.5,249.2,312.4,248.7 M314.7,242.9c0,0.1-0.1,0.1-0.2,0.1
		C314.6,242.9,314.6,242.9,314.7,242.9 M315.1,244.8c0-0.1,0.1,0,0.1-0.1C315.2,244.7,315.1,244.7,315.1,244.8 M315.7,241.3
		c0-0.2,0-0.3,0.1-0.4h0.1C315.9,241,316,241.4,315.7,241.3 M316.6,239.4c0,0-0.1,0-0.1,0.1C316.6,239.4,316.6,239.5,316.6,239.4
		 M316.6,241.3c0-0.2,0-0.3-0.1-0.2c0,0.2,0,0.3,0.1,0.3V241.3z M316.6,239.1c0.1-0.1,0.2-0.3,0.2-0.7
		C317.1,238.7,317,239.3,316.6,239.1 M317.3,239.6h-0.1v0.3h0.1V239.6z M317.4,239.3c0.3,0.1,0.3-0.4,0.1-0.3c0,0,0,0.1-0.1,0V239.3
		z M318.5,235.8c0,0.2-0.1,0-0.3,0C318.3,235.7,318.5,235.7,318.5,235.8 M318.6,234.7c0-0.3,0.1-0.4,0.2-0.4
		C318.7,234.4,318.8,234.7,318.6,234.7 M319,234.8v0.2c-0.2,0-0.2,0-0.2,0.1h-0.1v-0.2v-0.1H319z M319.1,233.8c-0.1,0-0.1-0.2,0-0.2
		h0.1C319.2,233.7,319.1,233.8,319.1,233.8 M319.2,233.2c0.2,0.2,0.1,0.3,0,0.4V233.2z M320.7,231.7h-0.2v-0.1h0.2V231.7z
		 M321.1,232.2h0.2H321.1z M323.4,227.7h-0.2v0.2h0.2V227.7z M323.4,226.8c-0.2,0,0-0.4,0.3-0.4
		C323.7,226.6,323.6,226.6,323.4,226.8 M324.5,225.3c-0.1,0.3-0.1,0.7-0.5,0.5c0.1,0,0.3-0.2,0.1-0.5H324.5z M328.2,221.7
		c-0.3,0-0.6,0.3-0.3,0.5C327.9,221.9,328.2,222,328.2,221.7"/>
	<path class="st0" d="M352.8,233.7c-0.1-0.2-0.4,0.6-0.5,0.7c0-0.7,0.8-1.4,1.2-2.1c0.6,0.2,0.7,0.6,0.9,0c0.3,0.6-0.3,1.1-0.2,2
		c-0.4,0.1,0.1,0.5-0.2,0.9c0.1,0.3,0.2-0.2,0.3-0.3c-0.5,1.4-0.8,2.6-1.4,3.8c0,0.2,0.2,0,0.2-0.2c-0.7,1.6-1.4,3.6-1.8,5.3H351
		c0.2-0.4-0.3-0.1,0,0c-0.7,1.1-0.8,2-1.4,3.2c-0.1,0.1-0.2,0.1-0.3,0c0,0.4-0.4,0.5-0.3,1.1h-0.3c-0.4,1.6-1.9,2.7-2.4,4.6
		c-0.1,0-0.4,0-0.4-0.1c-0.2,0.1,0,0.2,0,0.7c-1.4,1.8-3,3.6-4.6,5.5c-0.1,0.1-0.1,0.1-0.1,0.4c-0.3-0.2-0.2,0.3-0.3,0.3
		c-0.5-0.3-0.3,0.5-0.5,0.5c-0.1-0.1-0.3-0.1-0.4-0.1c-0.3,0.7-1.2,0.9-1.3,1.9c-1.5,1.1-3.5,2-6,2c-0.8-0.4-2-0.5-2.7-1
		c-0.3-0.1-0.4-0.5-0.8-0.8c-3-1.8-4.4-3.5-4.6-7.2c-0.2-1.4,0-3.3,0.2-4.2c-0.1,0.9,0,1.5-0.1,2.7c0.3-1,0.1-2.4,0.3-3.4
		c-0.4-0.2,0,0.4-0.3,0.3c0.1-0.1,0-0.5,0-0.8c0.1,0.2,0.2,0.2,0.5,0.1c0.1,1-0.3,2.5,0,3.7c0.3-3.8,0.8-9.3,2.1-12.6
		c0-1.9,0.8-3.1,1-4.6c-0.7,0.8-1,2.9-1.1,3.6c-0.4-1,0.4-1.9,0.4-3c-0.8,1.1-0.7,3-1.3,4.2c0.3-3.5,1.9-6.6,2.6-9.9
		c0.3-0.1,0.4-0.4,0.7-0.6c0.2-0.3-0.3-0.1-0.2-0.5c1.5-0.2,5.3-1.1,6.6,0.7c-0.4,1-0.5,2.2-0.9,3.1c-0.2,1.3-0.2,2.7-0.4,3.8
		c-0.1,0.2-0.4,0.3-0.5,0.5c-0.2,0.9-0.3,2-0.6,2.7c-0.2,1.5-1,3.4-1.1,5.2c-0.2,1.1-0.3,3.4-0.7,4.4c-0.3,3.5-0.6,6.8,0.2,9.6
		c1.2-0.8,2.1-2,3.3-2.8c-0.2,0.4-0.7,0.8-1.1,1.3c4.8-4.2,8.6-9.8,12.4-15.1c0.1,0,0.1-0.3,0.4,0c1-2.4,2.9-4,3.9-6.4
		C351.5,236,352.4,235,352.8,233.7 M324.4,248.9c0.1-0.2,0.1-0.5,0.5-0.5C324.6,248.5,324.7,248.9,324.4,248.9 M324.4,253.8
		c0.1,0.1,0,0.4,0.2,0.3C324.6,253.9,324.5,253.8,324.4,253.8 M324.7,248c-0.2-0.1,0-0.5,0-0.7C325,247.3,324.7,247.9,324.7,248
		 M325,249c0,0.2,0.1,0.6-0.1,0.6C324.9,249.3,324.5,249,325,249 M324.9,253.4c0,0.6-0.3,0.8,0,1.2
		C324.9,254.2,325.3,253.6,324.9,253.4 M324.9,246.2c0.1,0,0.1,0.1,0.2,0.1C325.2,246.8,324.7,246.3,324.9,246.2 M325.3,244.7
		c1-1.4,0.4-3.2,1.4-4.3c-0.8,2.4-1.1,5.2-1.6,7.9c-0.1-1.5-0.4-3,0.3-4.4C325.4,244.3,325.2,244.3,325.3,244.7 M324.9,254.7v1.3
		C325.3,255.9,325,254.8,324.9,254.7 M325.2,256.5c0-0.1,0-0.4-0.2-0.3v0.2C325,256.4,325,256.5,325.2,256.5 M325.3,244.8
		c-0.1,0.4-0.3,1.1-0.1,1.3C325.3,245.9,325.6,245.2,325.3,244.8 M325.2,256.6c0,0.2,0,0.8,0.2,0.4
		C325,257.2,325.4,256.5,325.2,256.6 M325.2,257.4c0.2,0-0.1,0.7,0.2,0.5C325.6,257.9,325.3,257.2,325.2,257.4 M326,241.1
		c-0.2,1-0.2,1.8-0.7,2.9C325.4,242.9,325.6,241.6,326,241.1 M327.6,236.4c0,0,0.1-0.2,0-0.5h0.1c0-0.1,0.3-0.4,0.1-0.7
		c-0.1,0.3-0.2,0.4-0.2,0.7C327.3,236,327.2,236.4,327.6,236.4 M328,234.3c0,0.1-0.1,0.1-0.1,0.4C328.2,234.8,328.2,234.2,328,234.3
		 M328.2,234.8c0.1,0.2-0.3,0.3,0,0.5C328.2,235.2,328.4,234.8,328.2,234.8 M328.6,232.5c0,0.2-0.3,0.7,0,0.9
		C328.6,233.2,329,232.7,328.6,232.5 M329.5,230.3c0,0,0.1,0,0.1-0.1C329.6,230.2,329.5,230.2,329.5,230.3 M338.5,217
		c-0.8,1-1.4,1.5-2.2,2.1c-1.3,0-1.9,0.8-3.3,0.8c-0.5-2.2-0.8-4.7-0.9-7.2c1.7-0.1,2.4-1.4,4.7-1.3c1.3,0.4,2.2,1.3,2.8,2.6
		c-0.1,1.2-0.2,2.1-0.6,3.1C338.9,217.3,338.7,216.7,338.5,217 M335.2,257.1c-0.3,0,0.2-0.2,0-0.4
		C335.6,256.8,335.2,256.9,335.2,257.1 M335.9,256.4c-0.2-0.2,0-0.5,0.3-0.5C336.3,256.2,335.8,256.1,335.9,256.4 M336.2,255.9
		c-0.1-0.3,0.2-0.1,0.2-0.4C336.6,255.8,336.3,255.9,336.2,255.9 M336.6,255.2c0.2,0,0.2,0.2,0,0.2h-0.1
		C336.4,255.3,336.6,255.2,336.6,255.2 M337,254.8c0.1-0.2,0.2-0.3,0.5-0.5C337.4,254.6,337.4,254.9,337,254.8 M338.4,253.2
		c0,0.1,0,0.1-0.1,0.1C338.3,253.4,338.3,253.2,338.4,253.2 M338.9,253.1c-0.3-0.7,0.9-1.5,1.3-2
		C339.9,251.9,339.1,252.2,338.9,253.1 M340.3,250.9c0,0,0,0.2-0.1,0.2C340.2,250.9,340.2,250.9,340.3,250.9 M340.5,250.5
		c0.3,0.1-0.1,0.4-0.2,0.4C340.2,250.6,340.4,250.6,340.5,250.5 M340.8,250.5c-0.3-0.2,0.1-0.4,0.1-0.5h0.1
		C341.1,250.2,340.9,250.2,340.8,250.5 M341.7,248.7c0.1,0,0.3,0.1,0.3,0.2h-0.3V248.7z M342.2,248.6c-0.3,0,0-0.1,0-0.3
		C342.3,248.3,342.2,248.5,342.2,248.6 M342.8,247.7c-0.4,0,0.2-0.7,0.6-0.8C343.1,247.3,343,247.4,342.8,247.7 M343.4,246.9v-0.2
		h0.1C343.5,246.8,343.5,246.9,343.4,246.9 M344.2,245.9c-0.1,0.2-0.4,0.7-0.8,0.8C343.8,246.3,343.7,245.7,344.2,245.9
		 M345.6,243.7c0.2,0.2-0.1,0.5-0.2,0.5C345.1,243.9,345.6,244,345.6,243.7 M346,243.4c-0.2,0,0.1-0.5,0.3-0.5
		C346.2,243,346.1,243.3,346,243.4 M346.7,242.4c0,0.2,0,0.2-0.2,0.2C346.4,242.4,346.4,242.4,346.7,242.4 M346.4,243.4
		c0,0.2,0,0.3,0.2,0.3C346.7,243.6,346.8,243.3,346.4,243.4 M346.7,242.4c0-0.2,0.2-0.3,0.3-0.7C347,242.2,346.9,242.3,346.7,242.4
		 M347.4,241.6c-0.4-0.2,0.2-0.5,0.1-0.8C348,241.1,347.4,241.4,347.4,241.6 M347.8,240.7c0-0.3,0.2-0.4,0.4-0.5
		C348.1,240.3,348.2,240.7,347.8,240.7 M348.8,239.5h-0.2v-0.2h0.2V239.5z M349.1,239c-0.1,0,0-0.7,0.3-0.5
		C349.4,238.8,349.1,238.8,349.1,239 M350.2,237.5c0.1-0.1,0-0.3,0.1-0.3C350.3,237.3,350.3,237.5,350.2,237.5 M350.7,236.4
		c0.1,0.4-0.1,0.4,0,0.6C350.4,237,350.4,236.2,350.7,236.4 M350.7,236.4c0-0.2,0.1-0.3,0.3-0.3C350.9,236.1,351,236.4,350.7,236.4
		 M351.3,235.8H351H351.3z M351.5,235.7c-0.5-0.2,0.1-0.7,0.4-0.9C351.7,235.2,351.6,235.5,351.5,235.7 M352,234.5
		c0.2,0,0.1,0.5-0.1,0.3C351.9,234.7,352,234.7,352,234.5 M352,235.6c0.1,0,0.2,0,0.2-0.1C352.1,235.5,352,235.5,352,235.6
		 M353.6,232.4c-0.2,0.4-0.5,0.7-0.7,1.2C353.3,233.4,353.7,232.7,353.6,232.4"/>
	<path class="st0" d="M344.5,248c0-0.1,0.2-0.5-0.2-0.4c0.1-2.2,1.1-3.6,1.5-5.9c-0.1-0.1-0.7,0-0.8,0c-0.5-0.5,0.4-0.1,0.5-0.2
		c0.1-0.1,0-0.8,0.1-0.1c0.6-0.2,0.6-0.9,0.8-1.2c0.4-0.1,0.2,0.2,0.4,0.2c0.1-0.5-0.1-0.3-0.4-0.5c0.7-0.2,0.7-2.1,1.3-2.3
		c-0.2-0.4,0.5-0.8,0.3-1.6c0.3,0.5,0.9-0.4,1-1.4c0.2,0,0.3,0,0.4,0.1c-0.2-0.4,0.2-0.7,0.4-1c0,0.1,0,0.2,0.1,0.2
		c0.2-0.1,0.1-0.2-0.1-0.2c0-0.1,0.3-0.3,0.1-0.3c0.5-0.4,1-1.1,1.5-1.6c-0.1-0.3-0.2,0.2-0.6,0.1c0.2-0.1,0-0.4,0-0.5
		c4.2-1.5,10.8-5.5,14.3-1c1.3-2,2.2-4.3,3.2-6.5c0-1,0-1.2,0.2-1.8c-0.3-1,0.3-1.9,0.3-2.6c0.1-0.1,0.2-0.1,0.3,0
		c-0.6-0.9-0.2-1.6,0.1-2.6c0.2,0,0.2-0.2,0.2-0.2c-0.2,0,0,0.1-0.2,0.2c-0.1,0-0.1,0.3-0.1,0.3c0.5-8.6,2.4-16.4,3.7-23.7
		c0-0.5-0.4-0.4-0.3-1c0.9-0.2,1.6-0.5,2.4-0.7c0.1,0,0.1,0.3,0.1,0.4c0.4,0,0.3-0.8,0.5-0.3c0.1,0,0.2-0.2,0.2-0.3
		c0.2,0.3,0.6,0,0.6-0.3c0.3,0,0.3,0.2,0.1,0.3c1.8,0,3,1.3,3.3,3.2c0,0.4-0.1,1-0.2,1.4c-1.4,7.2-2.7,14.7-3.7,21.9
		c0,0.1,0.2,0.3,0.2,0.4c-0.2,3.2-1.2,6.7-1.1,10c0,0.8-0.4,1.4-0.4,2.2c0,5.2-0.9,11.1-0.4,15.4c0,0.2-0.2,0.2-0.2,0.4
		c0.3,4.9-0.2,10.4,1.7,15.7c0.2-0.1,0-0.7,0.5-0.5c0-0.7,0.3-1.6,0.6-2.2c0.2,0.2,0.8,0.7,0.4,1.2c0.3,0,0.4,0,0.5-0.3
		c0.1,0-0.1,0.5-0.1,0.5c0.1,0.5,0.8,0.1,0.5,0.5c0.7-0.5,1.2,0.9,1,1.4c0,0.3,0.2,0,0.3,0v0.7c0.1,0,0.1-0.2,0.2-0.2
		c0.1,0,0,0.5-0.1,0.7c0.1,0.1,0.4,0.6,0.4,0.8v0.7c-0.4,2.9-5.7,2.6-7.2,0.8h-0.7c-0.7-0.9-1.8-1.3-2.5-2c-1.8-2.3-2.5-5.6-2.7-9.3
		c0-0.6,0.2-0.7-0.2-0.9c0.3-2-0.1-3.8,0-5.7c0.4,0.4,0.2,1.1,0.3,1.4c0.2-3.3,0.1-6.7,0.3-10c-0.3,0.2-0.3,0.8-0.2,1.3
		c-0.1-0.1-0.2-0.2-0.2-0.4c-2,3.6-4.2,7-5.9,10.9c-3.2,4.6-6.8,11.2-13.6,9.1c-0.1-0.2-0.2-0.4-0.7-0.3c-0.9-1.3-2.5-1.6-3.2-3.2
		c-0.3-3.4-0.2-6.4,0.5-9.3C344.2,247.9,344.3,248,344.5,248 M344,250.2c0.1,0,0.2,0,0.2-0.1C344.1,250.1,344,250.1,344,250.2
		 M344.5,247.3c0.2,0,0.3,0,0.3-0.1C344.7,247.2,344.5,247.2,344.5,247.3 M344.9,246h-0.1v0.2h0.1V246z M346.1,241.6h-0.3v0.1h0.3
		V241.6z M358.6,230.8c-2.7,2.1-4.1,5.5-5.8,8.8c0,0.2,0.1,0.2,0.1,0.5c-2.1,4.6-3.2,9.2-3.8,14.2c0.4,0.7,0,1.6,0.3,2.4
		c4.3-3.4,6.1-9.3,9.4-13.9c1.3-3,3.1-5.4,4.4-8.2c-0.5-0.1-0.8,0-1.4,0c-0.4-1.3-1.2-2.1-1.8-3.4c-0.2,0-0.4-0.3-0.8-0.6v0.6
		C358.9,231.1,358.9,230.8,358.6,230.8 M349.5,235.1c0,0,0.1,0,0.1-0.1C349.6,235,349.5,235,349.5,235.1 M352.4,231.4
		c0.2,0,0.3,0,0.3-0.2C352.6,231.2,352.4,231.2,352.4,231.4 M353.6,252.6h0.1c0-0.1,0.2-0.3,0-0.4
		C353.6,252.3,353.6,252.5,353.6,252.6C353.5,252.6,353.6,252.7,353.6,252.6 M353.9,252C354.2,252,353.7,251.5,353.9,252
		C353.7,252,353.9,252.2,353.9,252 M354.2,251.4c-0.5,0.5,0.4-0.2,0-0.1V251.4z M354.8,250.7c0.1-0.2,0.4-0.5,0.5-1.1
		c0.1,0-0.1-0.1,0,0C355,250,354.7,250.6,354.8,250.7 M355.4,249.4c0.2,0.1,0.4-0.4,0.1-0.4c0,0.2,0,0.2-0.1,0.2V249.4z
		 M356.1,248.3C356.3,248.3,356,247.9,356.1,248.3C355.6,248.3,356.1,248.8,356.1,248.3 M357.4,246.2c-0.4-0.1-0.2,0.1-0.4,0.3
		C357.3,246.7,357.3,246.2,357.4,246.2 M358.3,244.6c-0.3,0-0.8,0.7-0.4,1C357.8,245,358.1,244.8,358.3,244.6 M358.5,243.9
		c0,0.2-0.2,0.2-0.3,0.1C358.1,244.6,358.8,244,358.5,243.9 M358.9,243v0.2c-0.1,0-0.1,0.1-0.1,0.2c-0.3,0,0,0.4,0,0
		c0.1,0,0-0.1,0.1-0.2V243c0.4-0.2,0.5-0.4,0.5-0.9c0.4,0.1,0.3-0.7,0.1-0.6c0.2,0.3-0.1,0.3-0.1,0.6
		C359.5,242.6,358.9,242.6,358.9,243 M360.1,241c-0.2,0-0.1,0.4-0.2,0.5C360.1,241.5,360.1,241.3,360.1,241c0.3-0.1,0.3-0.2,0.4-0.3
		c0-0.5,0.2-0.5,0.3-0.9c-0.3,0-0.7,0.5-0.3,0.9C360.1,240.4,360.3,240.7,360.1,241 M361.2,239.1c0,0-0.1,0-0.1,0.2
		c-0.2,0,0,0.1,0,0C361.2,239.3,361.2,239.3,361.2,239.1c0.1,0,0.1,0,0.1-0.1c0.1-0.2,0.7-0.7,0.4-0.9c-0.2,0.2-0.5,0.3-0.4,0.9
		C361.2,239,361.2,239.1,361.2,239.1 M362,237.8C362.1,237.7,362,237.7,362,237.8C361.9,237.8,362,238,362,237.8 M362.2,237.5
		c0-0.1-0.1,0-0.1,0c-0.1,0.1,0,0.1,0,0H362.2c0.3-0.3,0.3-0.7,0.4-1c0.2,0,0.1-0.3,0.2-0.3c-0.3,0-0.2,0.1-0.2,0.3
		C362.6,236.8,362.2,236.9,362.2,237.5 M363.3,235.1c0,0-0.1,0.2-0.1,0.3c-0.3-0.1-0.3,0.6,0,0.3v-0.3c0.1,0,0.2-0.1,0.2-0.3
		c0.1-0.1,0-0.1,0,0H363.3z M366.5,229c-0.1,0,0,0.1-0.1,0.2v0.3c-0.3,0-0.5,0.2-0.2,0.3c0-0.2,0.2-0.2,0.2-0.3v-0.3
		C366.5,229.2,366.5,229,366.5,229c0.1-0.1,0.1-0.1,0.1-0.2c0.2,0-0.1-0.4,0,0C366.5,228.8,366.5,228.9,366.5,229 M367.1,228.2
		c0-0.1,0-0.3-0.2-0.3c0,0.2-0.1,0.4,0,0.4C366.8,228.2,367.1,228.2,367.1,228.2 M367.1,247.7c-0.5-0.3,0.1-1.3-0.2-2
		C367.4,245.9,366.8,247.2,367.1,247.7 M367.2,241.4h-0.3v-0.3h0.3V241.4z M367.1,245.5c-0.4-0.1,0.1-0.9-0.2-1.2
		C367.3,244.4,367.1,245.2,367.1,245.5 M367.2,243.7c-0.4-0.3-0.1-1.3-0.1-1.6C367.4,242.4,366.8,243.3,367.2,243.7 M367.2,250
		c0,0.2-0.1,0.9,0.2,1C367.2,250.5,367.4,250.2,367.2,250 M367.4,246.3c0.1,0.9,0.3,1.5,0.4,0.4
		C367.5,246.8,367.7,246.3,367.4,246.3 M367.4,247.5c0,0.3,0.1,0.6,0.3,0.7C367.8,248.1,367.7,247.7,367.4,247.5 M367.4,254.8v0.7
		C367.7,255.6,367.7,254.7,367.4,254.8 M367.5,243.5c0,0.1-0.1,0.6,0.3,0.4C367.8,243.7,367.7,243.5,367.5,243.5 M367.5,251.2
		c0,0.2-0.1,0.4,0.3,0.4C367.8,251.4,367.7,251.3,367.5,251.2 M367.8,241.3h-0.1c0,0.4,0,1-0.2,1.4
		C367.9,242.4,367.8,241.7,367.8,241.3L367.8,241.3l0.1-1.2c0-0.4,0.1-1,0-1.1c-0.1,0.3-0.2,0.7,0,1.1
		C367.7,240.4,367.7,240.7,367.8,241.3 M367.5,244.8c0.2,0.4-0.2,0.9,0.2,1.1C367.5,245.3,368,244.9,367.5,244.8 M367.5,250.8
		c0.2,0,0.3,0,0.3-0.1C367.7,250.7,367.5,250.7,367.5,250.8 M367.5,256.9c0,0.2,0,0.3,0.3,0.3C367.8,257.1,367.7,256.9,367.5,256.9
		 M367.9,244.3c0,0.1-0.1,0.1,0,0.4C368.2,244.8,368.2,244.1,367.9,244.3 M368.2,240.1c0.2-0.1,0.2,0.1,0.3,0
		C368.5,240,368.2,240,368.2,240.1 M368.8,222.3c-0.4,0.5,0.6-0.1,0-0.1V222.3z M369.1,219.6c0,0.1-0.3,0.7,0,0.9
		C369.3,220.3,369.4,219.6,369.1,219.6 M369,220.6v0.4C369.3,221.1,369.3,220.4,369,220.6 M369.5,215.9c0.2,0,0.3,0,0.3-0.1
		C369.7,215.8,369.5,215.8,369.5,215.9 M369.7,214.3c0.1,0.3-0.2,0.9,0.1,1.3C369.9,215.1,370,214.5,369.7,214.3 M369.8,218.4
		c0,0.1-0.3,0.6,0,0.7C369.8,218.7,370,218.5,369.8,218.4 M369.9,213.9c-0.5,0.5,0.5-0.1,0-0.1V213.9z M370,213.2
		c-0.1-0.2,0.1-0.2,0-0.5c0.4-0.1-0.1-0.7,0,0C369.9,212.8,369.8,213.1,370,213.2 M370.5,211.1c-0.1,0-0.1-0.1-0.1-0.1
		c0.2,0-0.2-0.5,0,0C370,211,370.3,211.4,370.5,211.1 M370.5,209.9c0,0.1-0.1,0.1-0.1,0.4C370.6,210.5,370.6,209.8,370.5,209.9
		 M370.6,212.5c-0.1,0-0.2,0.5,0,0.5C370.5,212.8,370.8,212.5,370.6,212.5 M371.7,203.2c0-0.3,0.1-0.4,0.1-0.6
		C371.3,202.6,371.7,203.1,371.7,203.2C371.2,203.2,371.7,203.8,371.7,203.2 M371.8,202c0,0-0.3,0.5,0,0.5
		C371.8,202.2,372.1,202,371.8,202"/>
	<path class="st0" d="M401.9,231.9c-0.2,0,0,0.2,0,0.2c-0.7,2-1.1,4.4-1.9,6.3c0,3-0.3,5.4-0.3,8.4c0.4,2.9,0.4,6.6,2.4,8.7
		c4.4-2,6.7-5.9,9.8-9.2c-0.1-0.3,0.2-0.3,0.2-0.8c0.3,0,0.1-0.4,0.5-0.2c1.8-2.9,3.7-5.3,5.5-7.9c0-0.2-0.2-0.2-0.1-0.3
		c0.4,0.1,0.8-0.3,0.7-1c0.3,0,0.4-0.3,0.5,0c0-1,0.8-1.3,1.1-1.6c0.7-1,1.8-2.5,2.7-3.6c0.1,0.2,0.2,0.3,0.3,0.4
		c-0.1,0.7-0.2,1.1,0,1.6c-0.3,0.9-0.8,1.9-1.3,2.6c0.3,0.7-0.2,1.4-0.8,1.5c0.1,0.4,0.3,0,0.6,0c0,0.5-0.6,0.4-0.6,0.8
		c-0.1,0.2-0.3,0.2-0.3,0.3c0.2,0.1,0.4,0,0.3-0.3c0.4,0.2,0.4-0.4,0.7-0.2c-0.3,0.7-0.9,1.3-1.2,2.1c0.4-0.2,0.7-0.8,1.1-1.2
		c-0.2,0.5-0.7,1.6-1.1,1.9c0,0.1,0.2,0.1,0.3,0.3c-0.4,0.3-0.5,1-0.8,1.5h-0.3c-0.1,0.2,0.1,0.2,0.1,0.7c-0.7,0.7-0.9,1.5-1.4,2.1
		c-0.3,2.3-2.6,4.3-3.5,6.5c-3,3.3-5.9,7.1-11.7,7.2c-1.8,0.8-2.9-0.7-4.2-1.3c-1.2-0.7-2.5-1.1-3.2-1.9c-1.4-1.3-2.3-3.3-2.5-5.2
		c-0.1-0.2-0.1-0.7-0.2-0.9c0-0.7-0.2-1.5,0-1.9c-0.2-0.2-0.3-0.5-0.4-0.7c0-0.2,0.1-0.7,0-0.9c-0.2,0.2-0.4,0.7-0.5,1
		c-0.1,0-0.1-0.1-0.2-0.1c-2.6,4.1-5.2,8.3-9.1,11.2c-0.9,0.1-1.5,0.6-2.5,0.7c-3.4-0.1-4.8-2.3-6.7-4.2c0.2-0.3-0.5-1,0-1.2
		c-0.2-0.2-0.5-0.7-0.2-1.1c0.2-0.8,0.1-1.4,0.1-2.6c0.1,0,0.2,0.2,0.2,0.2c0-0.2,0.1-0.6-0.1-0.4c-0.1-0.2,0-0.4,0.2-0.2
		c0-0.2,0-0.3-0.1-0.3c0-0.1,0.1-0.1,0.3-0.2c-0.7-1.4,0.9-3.1,0.8-4.6c0.1,0,0,0.2,0,0.3c0.2-0.1,0.5-0.8,0.1-0.9
		c0-0.5,0.2,0,0.4-0.2c0-0.9,0.4-1.2,0.2-2c0.1,0.1,0.1,0.2,0.2,0.1c0.3-1.2,1.3-2.6,1.5-4.1c0.2,0.1-0.2,0.3,0,0.7
		c0.7-1.1,0.9-2.2,1.6-3.2c0.4-0.3,0.4-0.8,0.7-1.2c0.1,0,0.1,0.1,0.3,0.2c0.1-0.4,0.4-1.1,0.9-1.5c0.1,0.1,0.1,0,0.1,0
		c0.1,0,0-0.1,0-0.1c0.3-0.7,0.8-1.1,1.2-1.4c0,0.1,0,0,0,0c0.5-1,1.3-1.7,1.9-2.4c0-0.1-0.4-0.1-0.3-0.4c0.5,0.2,1.3,0.3,1.6-0.2
		c2.9-0.8,6-0.5,7.4,1.5c-0.1,0.2-0.2,0.2-0.4,0.2c0.3,0.8,0.3,1.8,0.5,2.9c0.5-0.2,0.7-0.8,1-1.2c0.2,0.3-0.3,0.7-0.3,1.1
		c0.5-0.8,1.2-1.4,1.4-2.5c0.3,0,0.7-0.4,0.4-0.7c0.2-1.3,1.4-2.4,1.5-3.5c1.9-0.2,4.3,0,5.9,0.8c0.9,1.6-0.4,3.4-1,4.7
		c0.2,0.2,0.1,0.8-0.1,1.1V231.9z M374.5,247.5h0.2H374.5z M376.6,239.4c0,0.1-0.1,0.1-0.1,0.1C376.5,239.4,376.6,239.4,376.6,239.4
		 M376.6,240.7C377,240.7,376.6,240.3,376.6,240.7C376.5,240.9,376.6,240.9,376.6,240.7 M377,240.1C377.2,240,377,240,377,240.1
		C376.6,240.1,377,240.4,377,240.1 M378.3,237.6c-0.3-0.1-0.4,0.2-0.2,0.4C377.9,237.7,378.3,237.7,378.3,237.6 M378.7,253.8
		c1.5-0.9,2.4-2,3.2-3.5c0,0.2,0,0,0,0c1-0.8,1.4-2.1,2.3-3c0,0.2,0.3-0.1,0,0c0.8-1.2,1.4-2.4,2.2-3.3c0,0.5,0.4,0.1,0,0
		c0.2-0.7,0.5-1.3,1.1-1.8c0,0.4-0.6,0.7-0.3,1c0.1-0.3,0.8-1.1,0.3-1c0.3-0.8,1-2,1.5-2.5c0,0.5-0.5,0.7-0.5,1.2
		c0.5-0.3,0.8-1,1.1-1.6c0.1,0,0.2-0.3,0.3-0.4c-0.3,0-0.3,0.1-0.3,0.4c-0.3,0-0.3,0.7-0.4,0.3c0.8-1.6,1.9-3,2.6-4.7
		c-0.3-0.7-0.7-1.2-1-1.8c0-0.1-0.2-0.2-0.3-0.2c0-0.1,0-0.4-0.1-0.4c-0.4-0.7-0.5-2-1.5-2.3c-0.9,0.8-1.8,2-2,3
		C383.2,239.1,379.7,245.5,378.7,253.8 M379.3,234.4c-0.2,0,0-0.3,0-0.6C379.8,234.1,379.2,234.2,379.3,234.4 M381.2,232.3h-0.1
		c-0.1,0-0.1-0.2,0.1-0.1V232.3z M381.7,231.1v0.1h-0.3C381.3,231.2,381.5,231.1,381.7,231.1 M381.7,231c0.1-0.1,0.1-0.4,0.3-0.4
		C382,230.9,381.9,231,381.7,231 M383,249.5C383.2,249.5,382.9,249.2,383,249.5C382.5,249.5,383,250,383,249.5 M383.2,229
		c0.3,0.1-0.1,0.4-0.2,0.4C383,229.1,383.2,229.1,383.2,229 M383,229.4v0.1V229.4z M386.8,243.7h-0.2v0.2h0.2V243.7z M386.9,233.2
		h-0.1C386.8,233.1,386.9,233.1,386.9,233.2 M388.2,241.6c-0.4,0-0.4,0.4-0.6,0.6C387.9,242.2,388.1,242,388.2,241.6 M388.8,229.7
		h0.2H388.8z M390.9,236.9c-0.3,0.7-0.7,1.2-1.1,1.8C390.3,238.3,391,237.5,390.9,236.9 M390.9,234.1c0.2-0.2-0.3-0.6-0.1-0.9
		c-0.2,0-0.3-0.1-0.3-0.2C390.3,233.2,390.9,233.7,390.9,234.1 M391.2,234.3c-0.1,0.1-0.1,0-0.2,0
		C391,234.2,391.2,234.2,391.2,234.3 M391.1,233.4c0,0.3,0.3,0.7,0.5,0.9C391.6,233.7,391.4,233.5,391.1,233.4 M391.4,234.4
		c0,0.1-0.2,0.1-0.2,0.1S391.4,234.5,391.4,234.4 M391.4,236.5c-0.2-0.2,0.2-0.2,0.2-0.7h0.1c0-0.1,0.3-0.4,0.1-0.7
		c-0.1,0.3-0.2,0.3-0.2,0.7C391.4,235.8,391,236.4,391.4,236.5 M393,251.3c0.1-0.1,0.1-0.3,0.2-0.5
		C393.6,250.8,393.4,251.3,393,251.3 M393.5,232.5c0.1,0.2,0.2-0.3,0-0.2c0,0,0,0.1,0,0V232.5z M393.6,249.9c0.1,0,0.2,0,0.2-0.2
		C393.7,249.9,393.6,249.9,393.6,249.9 M394.3,231.9c0,0.2-0.2,0.3,0,0.4C394.3,232.2,394.4,232.1,394.3,231.9 M395.1,229.7
		c-0.3,0.2-0.4,0.8-0.7,1.2c-0.2-0.7,0.7-1.2,0.9-2c0.1,0,0.1,0.1,0.2,0.1C395.5,229.2,395.1,229.2,395.1,229.7 M395.7,228.5
		c0.1,0.1-0.1,0.5,0.1,0.5c0-0.2,0.3-0.4,0.3-0.7h0.1v-0.2c-0.1,0-0.1,0.1-0.1,0.2C396,228.5,395.8,228.5,395.7,228.5 M396.4,227.8
		C396.7,227.8,396.2,227.5,396.4,227.8C396.2,227.9,396.4,227.9,396.4,227.8 M418.1,245.5h0.1H418.1z M420.2,240.2
		c-0.1,0.5,0.5,0.1,0.3,0C420.4,240.1,420.2,240.2,420.2,240.2 M420.5,242.4c-0.1,0-0.3-0.1-0.1-0.2
		C420.5,242.2,420.5,242.3,420.5,242.4"/>
	<path class="st0" d="M435.8,247.9l5.8-3.6c1.7,2.8,4.6,4.4,7.6,4.4c2.4,0,4.2-0.7,4.2-2.5c0-1.8-2.3-2.5-5.2-3.2
		c-4.7-1.2-11-2.4-11-9c0-5.9,4.5-9.1,11-9.1c6.1,0,9.8,2.8,12.1,5.7l-5.2,4.3c-1.6-1.9-4.4-3.6-6.9-3.6c-2.2,0-3.4,0.7-3.4,2.1
		c0,1.9,2.3,2.6,5.1,3.3c4.7,1.1,11.1,2.6,11.1,9.1c0,4.6-3.2,9.2-12.2,9.2C442.2,254.8,438.3,251.8,435.8,247.9"/>
	<rect x="465.4" y="225.3" class="st0" width="7.8" height="28.9"/>
	<polygon class="st0" points="478.8,254.3 478.8,225.3 486.5,225.3 497.1,241.6 497.2,241.6 497.2,225.3 504.4,225.3 504.4,254.3 
		497.1,254.3 486.1,238.1 486,238.1 486,254.3 	"/>
	<polygon class="st0" points="520.9,254.3 520.9,225.3 541.5,225.3 541.5,231.8 528.7,231.8 528.7,236.5 537.9,236.5 537.9,242.6 
		528.7,242.6 528.7,248 542.2,248 542.2,254.3 	"/>
	<polygon class="st0" points="546.1,254.3 546.1,225.3 553.9,225.3 553.9,248 566.1,248 566.1,254.3 	"/>
	<polygon class="st0" points="569.3,254.3 569.3,225.3 577.2,225.3 577.2,248 589.3,248 589.3,254.3 	"/>
	<path class="st0" d="M590.3,254.3l10.2-29h7.3l10.2,29h-7.9l-1.8-5.4h-9.1l-1.9,5.4H590.3z M601.1,243.3h5.5l-2.7-8h-0.1
		L601.1,243.3z"/>
	<polygon class="st0" points="0,254.6 0,225.7 7.7,225.7 18.3,241.9 18.4,241.9 18.4,225.7 25.5,225.7 25.5,254.6 18.3,254.6 
		7.2,238.5 7.2,238.5 7.2,254.6 	"/>
	<path class="st0" d="M29.5,240.2c0-10.6,7.2-15,14.2-15c7,0,14.2,4.4,14.2,15c0,10.6-7.2,15-14.2,15
		C36.8,255.2,29.5,250.8,29.5,240.2 M50.1,240.2c0-5.3-2.3-8.6-6.4-8.6c-4.1,0-6.4,3.2-6.4,8.6c0,5.3,2.3,8.8,6.4,8.8
		C47.8,248.9,50.1,245.5,50.1,240.2"/>
	<polygon class="st0" points="620,231.2 620,226 618,226 618,225.3 622.7,225.3 622.7,226 620.7,226 620.7,231.2 	"/>
	<path class="st0" d="M623.4,231.2v-5.8h1.2l1.4,4.1c0.1,0.4,0.2,0.7,0.3,0.9c0.1-0.2,0.2-0.5,0.3-0.9l1.4-4.1h1v5.8h-0.7v-4.9
		l-1.7,4.9h-0.7l-1.7-5v5H623.4z"/>
</g>
</svg>
