<?xml version="1.0" encoding="utf-8"?>
<!-- Generator: Adobe Illustrator 24.1.2, SVG Export Plug-In . SVG Version: 6.00 Build 0)  -->
<svg version="1.1" id="Capa_1" xmlns="http://www.w3.org/2000/svg" xmlns:xlink="http://www.w3.org/1999/xlink" x="0px" y="0px"
	 width="30.6px" height="50px" viewBox="0 0 30.6 50" style="enable-background:new 0 0 30.6 50;" xml:space="preserve">
<style type="text/css">
	.st0{fill:#FFFFFF;}
</style>
<g id="Grupo_2932" transform="translate(-2413.331 -1586.084)">
	<path id="Rectángulo_1749" class="st0" d="M2428.6,1616.6L2428.6,1616.6c0.5,0,1,0.4,1,1v9.1c0,0.5-0.4,0.9-0.9,0.9h-0.1
		c-0.5,0-0.9-0.4-0.9-0.9v-9.2C2427.7,1617,2428.1,1616.6,2428.6,1616.6z"/>
	<g id="Grupo_2930" transform="translate(2413.331 1586.084)">
		<path id="Trazado_1291" class="st0" d="M27,24.7V10.1C27,10.1,27.1,0,14.6,0C4.5,0,2.5,9.9,2.5,9.9v16.4
			c-4.7,7.1-2.7,16.6,4.4,21.2c7.1,4.7,16.6,2.7,21.2-4.4C31.9,37.4,31.4,29.9,27,24.7L27,24.7z M4.4,9.8c0,0,1.7-8,10.4-8.2
			c11.1-0.2,10.5,9.5,10.5,9.5V23C19.1,17.8,10,18.2,4.4,24V9.8z M15.3,48.2c-7.5,0-13.6-6.1-13.6-13.6s6.1-13.6,13.6-13.6
			s13.6,6.1,13.6,13.6l0,0C28.9,42.2,22.8,48.2,15.3,48.2L15.3,48.2z"/>
	</g>
</g>
</svg>
