<?xml version="1.0" encoding="utf-8"?>
<!-- Generator: Adobe Illustrator 24.1.2, SVG Export Plug-In . SVG Version: 6.00 Build 0)  -->
<svg version="1.1" id="Capa_1" xmlns="http://www.w3.org/2000/svg" xmlns:xlink="http://www.w3.org/1999/xlink" x="0px" y="0px"
	 width="130px" height="130px" viewBox="0 0 130 130" style="enable-background:new 0 0 130 130;" xml:space="preserve">
<style type="text/css">
	.st0{fill:url(#SVGID_1_);}
	.st1{fill:#C5304E;}
</style>
<linearGradient id="SVGID_1_" gradientUnits="userSpaceOnUse" x1="20" y1="65" x2="110" y2="65">
	<stop  offset="0" style="stop-color:#C5304E"/>
	<stop  offset="0.4744" style="stop-color:#5B4890"/>
	<stop  offset="1" style="stop-color:#3095C6"/>
</linearGradient>
<path class="st0" d="M65,22.8c-23.2,0-42.2,18.9-42.2,42c0,23.3,18.9,42.3,42.1,42.3c23.3,0,42.3-18.9,42.3-42.1
	C107.2,41.8,88.2,22.8,65,22.8z M68,20c1.1,0.1,2.2,0.3,3.3,0.4c7.9,1.1,15.1,4.1,21.4,9.1c9,7.1,14.7,16.4,16.6,27.7
	c4.2,24.1-11.1,46.6-34.4,51.6c-16.7,3.6-31.2-0.9-43-13.3c-6.2-6.5-10-14.3-11.4-23.2C18.2,56.5,22.8,43,34.4,32
	c6.5-6.2,14.3-9.9,23.2-11.4c1.4-0.2,2.9-0.4,4.4-0.6C64,20,66,20,68,20z M87.2,84.3c-0.8,0.4-1.6,0.8-2.5,1.2
	C80.8,77.2,74.4,72.4,65,72.4c-9.4,0-15.8,4.8-19.8,13.2c-0.8-0.4-1.6-0.8-2.5-1.2c3-7.6,10.8-14.3,20.7-14.9
	C74.4,68.8,83.6,75.6,87.2,84.3z M48.1,60.3c-3.5,0-6.3-2.8-6.3-6.3c0-3.5,2.9-6.3,6.3-6.3c3.5,0,6.4,2.9,6.4,6.4
	C54.4,57.5,51.6,60.3,48.1,60.3z M81.8,60.3c-3.5,0-6.3-2.9-6.3-6.4c0-3.5,2.9-6.3,6.4-6.3c3.5,0,6.3,2.9,6.3,6.3
	C88.2,57.5,85.4,60.3,81.8,60.3z M54.2,39c-4.2,1.8-8.3,3.5-12.5,5.3c-0.4-0.9-0.7-1.7-1.1-2.6c4.2-1.8,8.3-3.5,12.4-5.3
	C53.4,37.3,53.8,38.1,54.2,39z M89.3,41.7c-0.4,0.9-0.7,1.7-1.1,2.6c-4.2-1.8-8.3-3.5-12.4-5.3c0.4-0.9,0.7-1.7,1.1-2.6
	C81,38.2,85.1,39.9,89.3,41.7z"/>
<rect x="99.4" y="390.4" class="st1" width="25.9" height="25.9"/>
</svg>
