<?xml version="1.0" encoding="utf-8"?>
<!-- Generator: Adobe Illustrator 24.1.2, SVG Export Plug-In . SVG Version: 6.00 Build 0)  -->
<svg version="1.1" id="Capa_1" xmlns="http://www.w3.org/2000/svg" xmlns:xlink="http://www.w3.org/1999/xlink" x="0px" y="0px"
	 width="130px" height="130px" viewBox="0 0 130 130" style="enable-background:new 0 0 130 130;" xml:space="preserve">
<style type="text/css">
	.st0{fill:url(#SVGID_1_);}
</style>
<linearGradient id="SVGID_1_" gradientUnits="userSpaceOnUse" x1="7.5" y1="65" x2="122.5" y2="65" gradientTransform="matrix(1 0 0 -1 0 130)">
	<stop  offset="0" style="stop-color:#C5304E"/>
	<stop  offset="0.4744" style="stop-color:#5B4890"/>
	<stop  offset="1" style="stop-color:#3095C6"/>
</linearGradient>
<path class="st0" d="M91.8,45.3c0.6,0.7,0.6,1.8,0,2.5L57.4,81.6c-0.4,0.4-0.7,0.6-1.3,0.6l0,0c-0.5,0-0.9-0.2-1.3-0.6L39.1,65.5
	c-0.6-0.7-0.6-1.8,0-2.5c0.7-0.6,1.8-0.6,2.5,0l14.6,14.9l33.1-32.6C89.9,44.6,91,44.6,91.8,45.3z M122.5,65
	c0,31.7-25.8,57.5-57.5,57.5S7.5,96.7,7.5,65S33.3,7.5,65,7.5S122.5,33.3,122.5,65z M119.1,65c0-29.9-24.2-54.1-54.1-54.1
	S10.9,35.1,10.9,65s24.2,54.1,54.1,54.1S119.1,94.9,119.1,65z"/>
</svg>
