<svg xmlns="http://www.w3.org/2000/svg" width="35.567" height="33.893" viewBox="0 0 35.567 33.893">
  <g id="Grupo_2335" data-name="Grupo 2335" transform="translate(-267.454 -503.303)">
    <path id="Trazado_1274" data-name="Trazado 1274" d="M281.176,530.675H280.8q-5.957,0-11.914,0a2.312,2.312,0,0,1-.724-.112,1.009,1.009,0,0,1-.711-1.017q0-12.478,0-24.955a1.264,1.264,0,0,1,1.216-1.281c.059,0,.118,0,.177,0h32.779a1.288,1.288,0,0,1,1.354.966,1.385,1.385,0,0,1,.037.351q0,12.433,0,24.866a1.157,1.157,0,0,1-1.291,1.189c-2.242.026-4.485.044-6.727.067q-2.741.028-5.483.061c-.068,0-.135.009-.224.015v3.944c.094,0,.2.012.3.012.83,0,1.66,0,2.489,0a1.148,1.148,0,0,1,1.2,1.187,1.171,1.171,0,0,1-1.168,1.232c-.049,0-.1,0-.148,0q-6.743,0-13.485,0a1.191,1.191,0,0,1-1.251-1.566,1.092,1.092,0,0,1,1.1-.852c.938,0,1.876,0,2.837,0Zm19.285-5.985v-18.8H270.019v18.8Z" transform="translate(0 0)" fill="#fff"/>
  </g>
</svg>
