<?xml version="1.0" encoding="utf-8"?>
<!-- Generator: Adobe Illustrator 25.0.0, SVG Export Plug-In . SVG Version: 6.00 Build 0)  -->
<svg version="1.1" id="Layer_1" xmlns="http://www.w3.org/2000/svg" xmlns:xlink="http://www.w3.org/1999/xlink" x="0px" y="0px"
	 viewBox="0 0 26 20" style="enable-background:new 0 0 26 20;" xml:space="preserve">
<style type="text/css">
	.st0{fill:#FFFFFF;}
</style>
<g id="Grupo_3505" transform="translate(801.815 -168.158)">
	<path id="Trazado_1915" class="st0" d="M-788.1,184.6c-3.7,0-6.5-0.8-9-2.7c-1.1-0.8-2.1-1.9-2.8-3.1c-0.3-0.4-0.2-0.8,0-1.2
		c1.5-2.4,3.8-4.2,6.5-5c1.3-0.4,2.6-0.7,3.9-0.7c2.7-0.2,5.5,0.4,7.9,1.7c1.8,0.9,3.4,2.3,4.5,4c0.4,0.4,0.4,1,0,1.3c0,0,0,0,0,0
		c-1.6,2.4-4,4.1-6.8,4.9C-785.4,184.3-786.7,184.5-788.1,184.6z M-788.4,183.4c1.5,0,2.9-0.3,4.3-0.7c2.3-0.7,4.3-2.1,5.8-4.1
		c0.2-0.3,0.2-0.4,0-0.7c-0.6-0.9-1.4-1.6-2.2-2.2c-2-1.5-4.4-2.3-6.9-2.5c-2-0.2-4,0-5.9,0.7c-2.2,0.7-4.2,2.2-5.5,4.1
		c-0.1,0.2-0.2,0.4,0,0.6c0.3,0.5,0.7,0.9,1.1,1.4C-795.2,182.4-792,183.4-788.4,183.4L-788.4,183.4z"/>
	<path id="Trazado_1916" class="st0" d="M-800.7,169.3c0,0.9,0,1.7,0,2.5c0,0.3-0.2,0.6-0.5,0.6c0,0-0.1,0-0.1,0
		c-0.3,0-0.5-0.3-0.5-0.5c0-1.1,0-2.1,0-3.2c0-0.3,0.2-0.5,0.5-0.5c0,0,0,0,0,0c1.2,0,2.3,0,3.5,0c0.3,0,0.6,0.2,0.6,0.5
		c0,0,0,0,0,0c0,0.3-0.2,0.6-0.6,0.6c0,0,0,0,0,0c-0.7,0-1.3,0-2,0L-800.7,169.3z"/>
	<path id="Trazado_1917" class="st0" d="M-800.7,187h0.3c0.8,0,1.7,0,2.5,0c0.3,0,0.6,0.2,0.6,0.5c0,0,0,0,0,0.1
		c0,0.3-0.3,0.6-0.6,0.6c0,0,0,0-0.1,0c-1.1,0-2.2,0-3.3,0c-0.3,0-0.6-0.2-0.6-0.5c0-0.1,0-0.1,0-0.2c0-1,0-2,0-3
		c0-0.3,0.2-0.6,0.5-0.6c0,0,0,0,0,0c0.3,0,0.6,0.3,0.6,0.6c0,0,0,0,0,0.1c0,0.7,0,1.5,0,2.2L-800.7,187z"/>
	<path id="Trazado_1918" class="st0" d="M-777,169.3h-0.3c-0.8,0-1.7,0-2.5,0c-0.3,0-0.6-0.2-0.6-0.5c0,0,0,0,0-0.1
		c0-0.3,0.3-0.6,0.6-0.6c0,0,0,0,0.1,0c1.1,0,2.2,0,3.3,0c0.3,0,0.6,0.2,0.6,0.5c0,0,0,0.1,0,0.2c0,1,0,2,0,3c0,0.3-0.2,0.6-0.5,0.6
		c0,0,0,0,0,0c-0.3,0-0.6-0.3-0.6-0.6c0,0,0,0,0-0.1C-777,171-777,170.2-777,169.3z"/>
	<path id="Trazado_1919" class="st0" d="M-777,187c0-0.8,0-1.6,0-2.4c0-0.5,0.2-0.8,0.6-0.8c0.4,0,0.6,0.3,0.6,0.8
		c0,0.9,0,1.9,0,2.8c0,0.5-0.2,0.7-0.7,0.7c-1.1,0-2.2,0-3.2,0c-0.4,0-0.7-0.2-0.7-0.5s0.2-0.6,0.7-0.6c0.8,0,1.7,0,2.5,0L-777,187z
		"/>
	<path id="Trazado_1920" class="st0" d="M-788.7,174c2.3,0,4.1,1.8,4.1,4.1c0,2.3-1.8,4.1-4.1,4.1c-2.2,0-4.1-1.8-4.1-4.1
		c0,0,0,0,0,0C-792.8,175.8-791,174-788.7,174C-788.7,174-788.7,174-788.7,174z M-788.7,181c1.6,0,3-1.3,3-2.9c0-1.6-1.3-3-3-3
		c-1.6,0-3,1.3-3,2.9c0,0,0,0,0,0C-791.7,179.7-790.4,181-788.7,181C-788.8,181-788.7,181-788.7,181z"/>
</g>
</svg>
