<?xml version="1.0" encoding="utf-8"?>
<!-- Generator: Adobe Illustrator 24.1.2, SVG Export Plug-In . SVG Version: 6.00 Build 0)  -->
<svg version="1.1" id="Componente_3_1" xmlns="http://www.w3.org/2000/svg" xmlns:xlink="http://www.w3.org/1999/xlink" x="0px"
	 y="0px" width="300px" height="44.8px" viewBox="0 0 300 44.8" style="enable-background:new 0 0 300 44.8;" xml:space="preserve">
<style type="text/css">
	.st0{fill:#707070;}
</style>
<g>
	<path id="Trazado_789" class="st0" d="M218.3,0l12.2,29.7h0.5L243.1,0h11.5v44.1h-9.1V15.4h-0.4l-11.4,28.5h-6.2l-11.4-28.6h-0.4
		v28.8h-9.1V0L218.3,0z"/>
	<g id="Grupo_540" transform="translate(398.657 0.107)">
		<rect id="Rectángulo_377" x="-133.9" y="0" class="st0" width="35.3" height="8.8"/>
		<rect id="Rectángulo_378" x="-133.9" y="17.6" class="st0" width="35.3" height="8.8"/>
		<rect id="Rectángulo_379" x="-133.9" y="35.2" class="st0" width="35.3" height="8.8"/>
	</g>
	<g id="Grupo_541" transform="translate(0 0.009)">
		<path id="Trazado_790" class="st0" d="M0,44.2V0h29.4v7.8H9.5v10.3h17.9V26H9.5v18.2L0,44.2z"/>
		<path id="Trazado_791" class="st0" d="M48,44.8c-3,0.1-6.1-0.7-8.7-2.1c-2.4-1.4-4.4-3.5-5.7-6c-2.7-5.7-2.7-12.2,0-17.9
			c1.3-2.5,3.2-4.6,5.7-6c5.5-2.9,12-2.9,17.4,0c2.4,1.4,4.4,3.5,5.6,6c2.6,5.7,2.6,12.2,0,17.9c-1.3,2.5-3.2,4.6-5.6,6
			C54,44.1,51,44.9,48,44.8z M48,37.6c1.4,0,2.7-0.4,3.7-1.3c1.1-0.9,1.9-2.2,2.3-3.5c1-3.3,1-6.9,0-10.2c-0.4-1.4-1.2-2.6-2.3-3.5
			c-1-0.9-2.4-1.3-3.7-1.3c-1.4,0-2.7,0.4-3.8,1.3c-1.1,0.9-1.9,2.2-2.3,3.5c-1,3.3-1,6.9,0,10.2c0.4,1.4,1.2,2.6,2.3,3.5
			C45.3,37.1,46.7,37.6,48,37.6L48,37.6z"/>
		<path id="Trazado_792" class="st0" d="M79.7,0v44.2h-9.4V0H79.7z"/>
		<path id="Trazado_793" class="st0" d="M96.3,0v44.2h-9.4V0H96.3z"/>
		<path id="Trazado_794" class="st0" d="M118.6,44.8c-3,0.1-6.1-0.7-8.7-2.1c-2.4-1.4-4.4-3.5-5.7-6c-2.7-5.7-2.7-12.2,0-17.9
			c1.3-2.5,3.2-4.6,5.7-6c5.5-2.9,12-2.9,17.4,0c2.4,1.4,4.4,3.5,5.6,6c2.6,5.7,2.6,12.2,0,17.9c-1.3,2.5-3.2,4.6-5.6,6
			C124.7,44.1,121.6,44.9,118.6,44.8z M118.7,37.6c1.4,0,2.7-0.4,3.7-1.3c1.1-0.9,1.9-2.2,2.3-3.5c1-3.3,1-6.9,0-10.2
			c-0.4-1.4-1.2-2.6-2.3-3.5c-1-0.9-2.4-1.3-3.7-1.3c-1.4,0-2.7,0.4-3.8,1.3c-1.1,0.9-1.9,2.2-2.3,3.5c-1,3.3-1,6.9,0,10.2
			c0.4,1.4,1.2,2.6,2.3,3.5C115.9,37.1,117.3,37.6,118.7,37.6L118.7,37.6z"/>
		<path id="Trazado_795" class="st0" d="M146.6,44.2L137.6,11h9.5l5,22.1h0.3l5.3-22.1h9.3l5.3,22h0.3l4.9-22h9.5l-8.9,33.1h-10
			l-5.6-20.6h-0.4l-5.6,20.6H146.6z"/>
	</g>
</g>
</svg>
