<svg xmlns="http://www.w3.org/2000/svg" width="121.757" height="121.757" viewBox="0 0 121.757 121.757"><g transform="translate(0)"><path d="M803.635,3281.345l-17.289-17.679v-38.837a1.9,1.9,0,0,1,3.8,0v37.261l16.175,16.565c.744.744.354,1.946-.39,2.69a1.9,1.9,0,0,1-1.345.557C804.1,3281.9,804.006,3281.717,803.635,3281.345Zm-69.436-20.37a1.9,1.9,0,1,0,0,3.8h7.61a1.9,1.9,0,0,0,0-3.8Zm106.537,3.8a1.9,1.9,0,0,0,0-3.8h-7.61a1.9,1.9,0,1,0,0,3.8Zm-54.391,43.756v7.61a1.9,1.9,0,0,0,3.8,0v-7.61a1.9,1.9,0,0,0-3.8,0Zm1.9-100.83a1.9,1.9,0,0,0-1.9,1.9v7.61a1.9,1.9,0,1,0,3.8,0v-7.61A1.9,1.9,0,0,0,788.248,3207.707Zm-.78,116.05a60.878,60.878,0,0,0,0-121.757,1.9,1.9,0,1,0,0,3.8,57.883,57.883,0,1,1-46.174,24.062l8.905-8.515v16.795a1.9,1.9,0,1,0,3.8,0v-20.927l-2.682-1.9H730.395a1.9,1.9,0,1,0,0,3.8h15.874l-8.165,8.167-.2.24a60.883,60.883,0,0,0,49.568,96.228Z" transform="translate(-726.59 -3202)"/></g></svg>