<svg xmlns="http://www.w3.org/2000/svg" width="48.321" height="39.947" viewBox="0 0 48.321 39.947">
  <g id="Grupo_3508" data-name="Grupo 3508" transform="translate(803.794 -536.534)">
    <path id="Trazado_1923" data-name="Trazado 1923" d="M-755.473,576.481h-41.263v-6.337h-7.059v-33.61h41.254v6.4h7.067Zm-16.3-9.084,7.382-6.8,6.337,5.827V545.571h-36.056v26.091l13.051-14.772Zm-24.943.128v-24.6h31.569v-3.812h-36.077v28.416Zm4.082,6.362h23.152l-11.577-13.095Zm34.615.038c0-1.225.018-2.371-.015-3.515a1.135,1.135,0,0,0-.316-.724c-1.921-1.8-3.863-3.579-5.8-5.362-.076-.07-.166-.126-.265-.2l-5.645,5.206,3.249,3.684a5.4,5.4,0,0,0,.614.673,1.064,1.064,0,0,0,.6.228c1.254.02,2.508.01,3.762.01Z" transform="translate(0)" fill="#fff"/>
    <path id="Trazado_1924" data-name="Trazado 1924" d="M-545.039,670.984a3.925,3.925,0,0,1,3.927,3.928,3.932,3.932,0,0,1-3.94,3.919,3.926,3.926,0,0,1-3.9-3.9A3.919,3.919,0,0,1-545.039,670.984Zm0,2.586a1.339,1.339,0,0,0-1.325,1.339,1.33,1.33,0,0,0,1.316,1.345,1.335,1.335,0,0,0,1.353-1.363A1.338,1.338,0,0,0-545.041,673.57Z" transform="translate(-227.395 -119.968)" fill="#fff"/>
  </g>
</svg>
