<?xml version="1.0" encoding="utf-8"?>
<!-- Generator: Adobe Illustrator 24.1.2, SVG Export Plug-In . SVG Version: 6.00 Build 0)  -->
<svg version="1.1" id="Capa_1" xmlns="http://www.w3.org/2000/svg" xmlns:xlink="http://www.w3.org/1999/xlink" x="0px" y="0px"
	 width="130px" height="130px" viewBox="0 0 130 130" style="enable-background:new 0 0 130 130;" xml:space="preserve">
<style type="text/css">
	.st0{fill:url(#SVGID_1_);}
</style>
<g>
	<linearGradient id="SVGID_1_" gradientUnits="userSpaceOnUse" x1="5.0974" y1="65" x2="126.9026" y2="65">
		<stop  offset="0" style="stop-color:#7551AA"/>
		<stop  offset="1" style="stop-color:#6561B0"/>
	</linearGradient>
	<path class="st0" d="M28.2,44.8c0-2.2,0-4.4,0-6.6c0-2-0.7-3.8-2.1-5.3c-1.1-1.1-2.3-2-4-1.6c-1.7,0.4-2.7,1.8-3.1,3.4
		c-0.2,0.6-0.1,1.2-0.1,1.9c0,1.8,0,3.6,0.1,5.4c0,0.4,0,0.8,0,1.4c-0.1,0.9-0.2,1.7-0.2,2.1c-0.4,2-0.7,4-1,6
		c-0.6,3.9-1.3,7.8-1.7,11.8c-0.3,2.4-0.1,4.9,1,7.1c1.4,3,3,6,4.6,9c-0.2,0.1,0,0,0,0c0.2-0.2,0.4-0.4,0.7-0.6
		c2.5-2.4,4.3-5.2,5.5-8.4c1.5-3.7,1.7-7.6,2.1-11.4c0-0.3-0.3-0.6-0.5-1c-0.4-0.6-0.7-0.7-0.8-1.3c0-0.8,0-2.9-0.1-4.6
		c-0.1-1.2,0-2.4,0-3.6C28.4,46.3,28.2,45.7,28.2,44.8z M57.3,59.1c2.5-0.3,5.1-0.4,7.6-1.1c7.8-2.1,15.6-4.5,23.4-6.7
		c5.4-1.5,5.4-1.5,7.4-6.8c0,0,0-0.1,0-0.1c0.1-0.9,0.2-1.9,0.2-2.8c0-0.8-0.6-1.5-1.4-1.6c-0.9-0.2-1.7-0.2-2.5,0.6
		c-3.5,3.6-7,7-10.6,10.5c-0.5,0.5-1.1,0.8-1.6,0.2c-0.6-0.7,0-1.1,0.4-1.6c3.5-3.4,7-6.8,10.4-10.2c2.8-2.9,5-6.3,6.4-10.1
		c0.4-1,0.4-2.2,0.3-3.3c-0.1-0.9-0.7-1.6-1.7-1.7c-1-0.1-1.9-0.1-2.5,0.9c-5.4,8.7-12.3,16.2-19.5,23.5C73.3,48.8,73.2,49,73,49
		c-0.4,0-0.9,0.1-1.1-0.1c-0.2-0.2-0.2-0.7-0.1-1.1c0.1-0.2,0.4-0.4,0.6-0.6c2.7-2.8,5.4-5.5,8-8.4c4.9-5.4,9.3-11.1,12.8-17.5
		c0.6-1.2,1-2.4,0.7-3.7c-0.3-1.4-1.3-2.2-2.7-2.6c-1.5-0.4-3-0.1-4,1.1c-1.3,1.4-2.5,2.9-3.6,4.4c-5.1,6.6-10.1,13.1-15.1,19.7
		c-1.6,2.1-3.4,4-5.1,6.1c-0.4,0.5-0.9,0.9-1.6,0.4c-0.6-0.5-0.3-1,0.2-1.5c0.5-0.6,1-1.1,1.4-1.7c6.1-7.1,12-14.3,17.4-22
		c0.2-0.3,0.5-0.7,0.5-1.1c-0.2-2.8-2.9-5.1-5.5-3.6c-0.8,0.4-1.5,0.9-2.2,1.4c-4.5,3.6-8.3,7.9-12,12.3c-0.2,0.2-0.2,0.7-0.1,0.9
		c1.5,3.3,1.1,6.4-0.8,9.4c-3.1,4.7-6.2,9.4-9.3,14.1c-1.1,1.6-0.7,2.8,1.2,3.3C53.8,58.7,55.5,58.8,57.3,59.1z M48.8,57.6
		c-0.5-2,0.6-3.3,1.5-4.7c2.9-4.4,5.8-8.7,8.7-13.1c1.2-1.9,1.7-3.9,1.2-6.1c-0.7-2.8-3-4.1-5.7-2.7c-0.8,0.4-1.6,1.1-2.1,1.9
		c-2,2.8-3.9,5.7-6,8.7l-1.1,0.9l-1.6,1.6l-1.2,1c-3.4,3.4-7.1,6.8-9.6,11.1c-1.2,2.1-1.4,4.4-1.6,6.8c-0.7,6.8-3.2,12.8-8.3,17.5
		c-1.2,1.1-2.6,2.1-4.1,3c-3.9,2.4-7.9,4.6-11.9,6.9c-0.3,0.2-0.6,0.4-0.9,0.4c-0.3,0-0.7-0.2-0.9-0.5c-0.1-0.2,0-0.7,0.2-1
		c0.2-0.3,0.5-0.4,0.8-0.5c4.1-2.4,8.1-4.7,12.2-7.1c1.5-0.8,1.5-0.9,0.9-2.5c-0.8-2.1-1.6-4.3-2.8-6.2c-2.2-3.5-2.7-7.3-2.2-11.2
		c0.6-5,1.6-10,2.4-15c0.5-3.4,0.8-6.7,0.4-10.1c-0.5-4.1,2.7-7.7,6.5-7.3c2.4,0.3,4,1.9,5.2,3.9c0.8,1.4,1.3,2.9,1.3,4.6
		c0.1,5.8,0.2,11.6,0.4,17.4c0,0.3,0.1,0.7,0.1,1.2c0.2-0.1,0.3-0.2,0.4-0.3c1.5-3.1,3.7-5.7,6.1-8.1c3.2-3.4,6.6-6.6,9.7-10.1
		c1.5-1.7,2.8-3.7,4-5.7c1.6-2.6,4.2-4.1,7-3.6c0.7,0.1,1.4,0.5,2.2,0.7c1.7-1.9,3.3-3.9,5.1-5.7c2.6-2.6,5.3-5,8-7.4
		c1-0.8,2.3-1.5,3.5-1.8c2.6-0.6,4.8,0.8,6.3,4.1c0.2-0.4,0.3-0.7,0.5-0.9c0.9-1.1,1.7-2.1,2.6-3.1c1.6-1.7,3.6-2.1,5.8-1.6
		c2,0.5,3.5,1.7,3.9,3.7c0.2,1.1,0,2.4-0.1,3.6c-0.1,0.6-0.3,1.1-0.5,1.7c0.1,0,0.2,0.1,0.3,0.1c2.6,0.4,3.9,1.7,4,4.4
		c0,1-0.1,2.1-0.5,3c-1.2,2.4-2.6,4.8-3.9,7.2c-0.2,0.3-0.4,0.7-0.7,1c3.9,0.7,4.1,4,3.2,6.9c-0.5,1.5-1.2,2.9-2,4.5
		c1.8-0.4,3.4-0.7,5.1-1c3.2-0.6,6.4-1.1,9.7-0.9c3.8,0.3,5.4,3.9,4.8,6.6c0,0.2-0.1,0.3-0.1,0.6c1.7-0.4,3.2-0.9,4.8-1.2
		c2.5-0.6,5.2,0.7,6.5,3.1c1.2,2.3,0.8,4.7-1.3,6.6c-0.6,0.6-1.3,1.1-1.9,1.6c2.6,2.8,2.3,6.1-0.9,8.2c-2.3,1.4-4.8,2.5-7.2,3.8
		c-0.4,0.2-0.9,0.3-1.3,0.5c2.2,2.8,1.7,5.7-1.5,7.6c-3.4,2-6.9,3.7-10.5,5.4c-4.2,2-8.5,3.8-12.6,5.8c-1.6,0.8-3,1.8-4.3,3
		c-4.6,4-10.1,6.4-15.9,7.7c-6.1,1.4-12.3,2.3-18.4,3.4c-5.9,1-11.9,1.5-17.5,3.8c-1.7,0.7-3.3,1.7-4.9,2.7
		c-0.6,0.3-1.1,0.7-1.5,0.1c-0.5-0.7-0.1-1.1,0.5-1.6c2.8-2.2,6-3.6,9.5-4.3c5.5-1.1,11-2,16.6-2.9c7.4-1.2,14.8-2.2,21.8-5.1
		c3.6-1.5,6.9-3.5,9.7-6.1c1-0.9,2.3-1.7,3.5-2.2c4.9-2.3,9.8-4.4,14.6-6.7c2.8-1.3,5.5-2.7,8.2-4.3c0.9-0.5,1.5-1.5,2.1-2.4
		c0.5-0.8,0.3-1.7-0.5-2.4c-0.5-0.5-1-0.6-1.8-0.3c-7.8,3.4-15.7,6.7-23.5,10c-0.7,0.3-1.6,0.9-2-0.2c-0.4-1.1,0.6-1.2,1.3-1.5
		c7.7-3.3,15.5-6.6,23.2-9.9c1.6-0.7,3.3-1.3,4.9-2.1c2.1-1,4.2-2.1,6.2-3.3c0.8-0.5,1.4-1.3,1.9-2.1c0.8-1.3,0.3-2.6-1.1-3.3
		c-0.4-0.2-1-0.2-1.4,0c-12.1,5.3-24.6,9.6-37.2,13.5c-0.1,0-0.2,0.1-0.3,0.1c-0.5-0.2-1.2-0.2-1.3-0.5c-0.3-0.7,0.2-1,0.9-1.2
		c4.5-1.5,9.1-2.8,13.5-4.4c7.9-2.9,15.7-5.9,23.5-9c1.6-0.6,3-1.6,4.4-2.7c1.5-1.2,1.9-2.8,1.1-4.3c-0.8-1.6-2.6-2.7-4.3-2.4
		c-1.9,0.4-3.9,0.9-5.7,1.6c-12.3,4.7-24.9,8.3-37.5,12c-0.7,0.2-1.2,0.1-1.4-0.6c-0.2-0.8,0.5-1,1.1-1.2c6.3-1.9,12.6-3.6,18.8-5.6
		c5.2-1.6,10.4-3.5,15.5-5.3c1.7-0.6,2.4-1.9,2.2-3.6c-0.3-2-1.4-3.3-3.3-3.2c-3,0.1-6.1,0.2-9.1,0.8c-10.6,2-20.8,5.3-31,8.4
		c-3.9,1.2-7.8,2.1-11.9,2.2C53.2,60.9,49.5,59.4,48.8,57.6z"/>
</g>
</svg>
