<?xml version="1.0" encoding="utf-8"?>
<!-- Generator: Adobe Illustrator 24.1.2, SVG Export Plug-In . SVG Version: 6.00 Build 0)  -->
<svg version="1.1" id="Componente_1_1" xmlns="http://www.w3.org/2000/svg" xmlns:xlink="http://www.w3.org/1999/xlink" x="0px"
	 y="0px" width="160.9px" height="80px" viewBox="0 0 160.9 80" style="enable-background:new 0 0 160.9 80;" xml:space="preserve">
<style type="text/css">
	.st0{enable-background:new    ;}
	.st1{fill:#FFFFFF;}
	.st2{fill:#707070;}
	.st3{fill:url(#Trazado_781_1_);}
	.st4{fill:url(#Rectángulo_355_1_);}
	.st5{fill:url(#Rectángulo_356_1_);}
	.st6{fill:url(#Rectángulo_357_1_);}
</style>
<g>
	<g class="st0">
		<path class="st1" d="M86.2,13.4l2.5,6.2h0.1l2.5-6.2h2.4v9.2h-1.9v-6h-0.1l-2.4,6h-1.3l-2.4-6h-0.1v6h-1.9v-9.2H86.2z"/>
		<path class="st1" d="M95.1,19.2c0-2.2,1.3-3.6,3.4-3.6c1.8,0,3.2,1.1,3.2,3.5v0.5H97l0,0c0,1,0.6,1.6,1.6,1.6
			c0.6,0,1.1-0.3,1.3-0.8l1.8,0.1c-0.3,1.3-1.4,2.1-3.1,2.1C96.4,22.7,95.1,21.4,95.1,19.2z M99.9,18.5c0-0.8-0.6-1.4-1.4-1.4
			c-0.8,0-1.5,0.6-1.5,1.4H99.9z"/>
		<path class="st1" d="M103,15.7h1.8v1.2h0.1c0.3-0.8,1-1.3,1.9-1.3c1,0,1.6,0.5,1.9,1.3h0.1c0.3-0.8,1.1-1.3,2.1-1.3
			c1.3,0,2.2,0.8,2.2,2.3v4.7h-1.9v-4.2c0-0.8-0.4-1.1-1.1-1.1c-0.7,0-1.1,0.5-1.1,1.2v4.2h-1.8v-4.3c0-0.7-0.4-1.1-1.1-1.1
			c-0.6,0-1.1,0.5-1.1,1.3v4.2H103L103,15.7L103,15.7z"/>
		<path class="st1" d="M114.6,13.4h1.9v3.5h0.1c0.3-0.6,0.8-1.3,2-1.3c1.5,0,2.8,1.2,2.8,3.6c0,2.3-1.2,3.6-2.8,3.6
			c-1.1,0-1.7-0.6-2-1.2h-0.1v1.1h-1.9V13.4z M117.9,21.2c1,0,1.5-0.8,1.5-2c0-1.2-0.5-2-1.5-2c-1,0-1.5,0.8-1.5,2
			C116.5,20.5,117,21.2,117.9,21.2z"/>
		<path class="st1" d="M122.3,19.2c0-2.2,1.3-3.6,3.4-3.6c1.8,0,3.2,1.1,3.2,3.5v0.5h-4.7l0,0c0,1,0.6,1.6,1.6,1.6
			c0.6,0,1.1-0.3,1.3-0.8l1.8,0.1c-0.3,1.3-1.4,2.1-3.1,2.1C123.6,22.7,122.3,21.4,122.3,19.2z M127.1,18.5c0-0.8-0.6-1.4-1.4-1.4
			c-0.8,0-1.5,0.6-1.5,1.4H127.1z"/>
		<path class="st1" d="M130.2,15.7h1.8v1.2h0.1c0.3-0.8,0.9-1.3,1.6-1.3c0.2,0,0.4,0,0.6,0.1v1.7c-0.2-0.1-0.6-0.1-0.8-0.1
			c-0.8,0-1.5,0.6-1.5,1.5v3.9h-1.9V15.7z"/>
	</g>
	<g class="st0">
		<path class="st1" d="M83.8,26.1H90v1.6h-4.2v2.2h3.9v1.6h-3.9v2.2H90v1.6h-6.2V26.1z"/>
		<path class="st1" d="M94.5,30.8l1.3-2.4h2l-2,3.4l2,3.4h-2l-1.4-2.4l-1.3,2.4h-2l2-3.4l-2-3.4h2L94.5,30.8z"/>
		<path class="st1" d="M98.8,28.4h1.9v1.2h0.1c0.3-0.6,0.8-1.3,2-1.3c1.5,0,2.8,1.2,2.8,3.6c0,2.3-1.2,3.6-2.8,3.6
			c-1.1,0-1.7-0.6-2-1.2h-0.1v3.7h-1.9V28.4z M102.2,33.9c1,0,1.5-0.8,1.5-2c0-1.2-0.5-2-1.5-2c-1,0-1.5,0.8-1.5,2
			C100.7,33.1,101.2,33.9,102.2,33.9z"/>
		<path class="st1" d="M106.6,31.9c0-2.2,1.3-3.6,3.4-3.6c1.8,0,3.2,1.1,3.2,3.5v0.5h-4.7l0,0c0,1,0.6,1.6,1.6,1.6
			c0.6,0,1.1-0.3,1.3-0.8l1.8,0.1c-0.3,1.3-1.4,2.1-3.1,2.1C107.9,35.4,106.6,34.1,106.6,31.9z M111.4,31.2c0-0.8-0.6-1.4-1.4-1.4
			c-0.8,0-1.5,0.6-1.5,1.4H111.4z"/>
		<path class="st1" d="M114.4,28.4h1.8v1.2h0.1c0.3-0.8,0.9-1.3,1.6-1.3c0.2,0,0.4,0,0.6,0.1V30c-0.2-0.1-0.6-0.1-0.8-0.1
			c-0.8,0-1.5,0.6-1.5,1.5v3.9h-1.9V28.4z"/>
		<path class="st1" d="M119.6,26.6c0-0.5,0.4-1,1-1s1,0.4,1,1c0,0.5-0.4,1-1,1C120,27.5,119.6,27.1,119.6,26.6z M119.6,28.4h1.9v6.9
			h-1.9V28.4z"/>
		<path class="st1" d="M122.8,31.9c0-2.2,1.3-3.6,3.4-3.6c1.8,0,3.2,1.1,3.2,3.5v0.5h-4.7l0,0c0,1,0.6,1.6,1.6,1.6
			c0.6,0,1.1-0.3,1.3-0.8l1.8,0.1c-0.3,1.3-1.4,2.1-3.1,2.1C124.1,35.4,122.8,34.1,122.8,31.9z M127.6,31.2c0-0.8-0.6-1.4-1.4-1.4
			s-1.5,0.6-1.5,1.4H127.6z"/>
		<path class="st1" d="M132.6,35.3h-1.9v-6.9h1.8v1.2h0.1c0.3-0.8,1.1-1.3,2.1-1.3c1.5,0,2.4,1,2.4,2.6v4.4h-1.9v-4.1
			c0-0.8-0.4-1.3-1.2-1.3s-1.3,0.5-1.3,1.4L132.6,35.3L132.6,35.3z"/>
		<path class="st1" d="M138.3,31.9c0-2.1,1.3-3.6,3.4-3.6c1.8,0,3,1.1,3.1,2.7H143c-0.1-0.7-0.6-1.1-1.3-1.1c-0.9,0-1.5,0.8-1.5,2
			c0,1.3,0.6,2.1,1.5,2.1c0.6,0,1.1-0.4,1.3-1.1h1.8c-0.1,1.6-1.3,2.7-3.1,2.7C139.5,35.4,138.3,34,138.3,31.9z"/>
		<path class="st1" d="M145.7,31.9c0-2.2,1.3-3.6,3.4-3.6c1.8,0,3.2,1.1,3.2,3.5v0.5h-4.7l0,0c0,1,0.6,1.6,1.6,1.6
			c0.6,0,1.1-0.3,1.3-0.8l1.8,0.1c-0.3,1.3-1.4,2.1-3.1,2.1C147,35.4,145.7,34.1,145.7,31.9z M150.5,31.2c0-0.8-0.6-1.4-1.4-1.4
			c-0.8,0-1.5,0.6-1.5,1.4H150.5z"/>
		<path class="st1" d="M157.5,30.5c-0.1-0.4-0.5-0.8-1.1-0.8c-0.6,0-1.1,0.3-1.1,0.7c0,0.3,0.3,0.6,0.9,0.7l1.3,0.3
			c1.3,0.3,2,0.9,2,1.9c0,1.3-1.3,2.3-3.1,2.3s-3-0.8-3.1-2.2l1.9-0.1c0.1,0.6,0.6,0.8,1.3,0.8s1.1-0.3,1.1-0.7
			c0-0.3-0.3-0.6-0.9-0.7l-1.2-0.3c-1.3-0.3-2-1-2-2c0-1.3,1.1-2.2,2.9-2.2s2.8,0.8,2.9,2L157.5,30.5z"/>
	</g>
	<g id="Grupo_769">
		<g id="Grupo_506" transform="translate(0 0)">
			<g id="Grupo_505">
				<path id="Trazado_781" class="st1" d="M8.7,1.7L18,24.2h0.4l9.2-22.5h8.7v33.5h-6.8V13.4h-0.3L20.5,35h-4.6L7.2,13.3H6.9v21.9H0
					V1.7H8.7z"/>
			</g>
		</g>
		<g id="Grupo_507" transform="translate(66.954 0.065)">
			<rect id="Rectángulo_355" x="-24.5" y="1.7" class="st1" width="26.8" height="6.7"/>
			<rect id="Rectángulo_356" x="-24.5" y="15.1" class="st1" width="26.8" height="6.7"/>
			<rect id="Rectángulo_357" x="-24.5" y="28.4" class="st1" width="26.8" height="6.7"/>
		</g>
	</g>
</g>
<g>
	<g>
		<path class="st2" d="M86.2,53.4l2.5,6.2h0.1l2.5-6.2h2.4v9.2h-1.9v-6h-0.1l-2.4,6h-1.3l-2.4-6h-0.1v6h-1.9v-9.2H86.2z"/>
		<path class="st2" d="M95.1,59.2c0-2.2,1.3-3.6,3.4-3.6c1.8,0,3.2,1.1,3.2,3.5v0.5H97l0,0c0,1,0.6,1.6,1.6,1.6
			c0.6,0,1.1-0.3,1.3-0.8l1.8,0.1c-0.3,1.3-1.4,2.1-3.1,2.1C96.4,62.7,95.1,61.4,95.1,59.2z M99.9,58.5c0-0.8-0.6-1.4-1.4-1.4
			c-0.8,0-1.5,0.6-1.5,1.4H99.9z"/>
		<path class="st2" d="M103,55.7h1.8v1.2h0.1c0.3-0.8,1-1.3,1.9-1.3c1,0,1.6,0.5,1.9,1.3h0.1c0.3-0.8,1.1-1.3,2.1-1.3
			c1.3,0,2.2,0.8,2.2,2.3v4.7h-1.9v-4.2c0-0.8-0.4-1.1-1.1-1.1c-0.7,0-1.1,0.5-1.1,1.2v4.2h-1.8v-4.3c0-0.7-0.4-1.1-1.1-1.1
			c-0.6,0-1.1,0.5-1.1,1.3v4.2H103L103,55.7L103,55.7z"/>
		<path class="st2" d="M114.6,53.4h1.9v3.5h0.1c0.3-0.6,0.8-1.3,2-1.3c1.5,0,2.8,1.2,2.8,3.6c0,2.3-1.2,3.6-2.8,3.6
			c-1.1,0-1.7-0.6-2-1.2h-0.1v1.1h-1.9V53.4z M117.9,61.2c1,0,1.5-0.8,1.5-2c0-1.2-0.5-2-1.5-2c-1,0-1.5,0.8-1.5,2
			C116.5,60.5,117,61.2,117.9,61.2z"/>
		<path class="st2" d="M122.3,59.2c0-2.2,1.3-3.6,3.4-3.6c1.8,0,3.2,1.1,3.2,3.5v0.5h-4.7l0,0c0,1,0.6,1.6,1.6,1.6
			c0.6,0,1.1-0.3,1.3-0.8l1.8,0.1c-0.3,1.3-1.4,2.1-3.1,2.1C123.6,62.7,122.3,61.4,122.3,59.2z M127.1,58.5c0-0.8-0.6-1.4-1.4-1.4
			c-0.8,0-1.5,0.6-1.5,1.4H127.1z"/>
		<path class="st2" d="M130.2,55.7h1.8v1.2h0.1c0.3-0.8,0.9-1.3,1.6-1.3c0.2,0,0.4,0,0.6,0.1v1.7c-0.2-0.1-0.6-0.1-0.8-0.1
			c-0.8,0-1.5,0.6-1.5,1.5v3.9h-1.9V55.7z"/>
	</g>
	<g>
		<path class="st2" d="M83.8,66.1H90v1.6h-4.2v2.2h3.9v1.6h-3.9v2.2H90v1.6h-6.2V66.1z"/>
		<path class="st2" d="M94.5,70.8l1.3-2.4h2l-2,3.4l2,3.4h-2l-1.4-2.4l-1.3,2.4h-2l2-3.4l-2-3.4h2L94.5,70.8z"/>
		<path class="st2" d="M98.8,68.4h1.9v1.2h0.1c0.3-0.6,0.8-1.3,2-1.3c1.5,0,2.8,1.2,2.8,3.6c0,2.3-1.2,3.6-2.8,3.6
			c-1.1,0-1.7-0.6-2-1.2h-0.1v3.7h-1.9V68.4z M102.2,73.9c1,0,1.5-0.8,1.5-2s-0.5-2-1.5-2c-1,0-1.5,0.8-1.5,2S101.2,73.9,102.2,73.9
			z"/>
		<path class="st2" d="M106.6,71.9c0-2.2,1.3-3.6,3.4-3.6c1.8,0,3.2,1.1,3.2,3.5v0.5h-4.7l0,0c0,1,0.6,1.6,1.6,1.6
			c0.6,0,1.1-0.3,1.3-0.8l1.8,0.1c-0.3,1.3-1.4,2.1-3.1,2.1C107.9,75.4,106.6,74.1,106.6,71.9z M111.4,71.2c0-0.8-0.6-1.4-1.4-1.4
			c-0.8,0-1.5,0.6-1.5,1.4H111.4z"/>
		<path class="st2" d="M114.4,68.4h1.8v1.2h0.1c0.3-0.8,0.9-1.3,1.6-1.3c0.2,0,0.4,0,0.6,0.1V70c-0.2-0.1-0.6-0.1-0.8-0.1
			c-0.8,0-1.5,0.6-1.5,1.5v3.9h-1.9V68.4z"/>
		<path class="st2" d="M119.6,66.6c0-0.5,0.4-1,1-1s1,0.4,1,1s-0.4,1-1,1C120,67.5,119.6,67.1,119.6,66.6z M119.6,68.4h1.9v6.9h-1.9
			V68.4z"/>
		<path class="st2" d="M122.8,71.9c0-2.2,1.3-3.6,3.4-3.6c1.8,0,3.2,1.1,3.2,3.5v0.5h-4.7l0,0c0,1,0.6,1.6,1.6,1.6
			c0.6,0,1.1-0.3,1.3-0.8l1.8,0.1c-0.3,1.3-1.4,2.1-3.1,2.1C124.1,75.4,122.8,74.1,122.8,71.9z M127.6,71.2c0-0.8-0.6-1.4-1.4-1.4
			s-1.5,0.6-1.5,1.4H127.6z"/>
		<path class="st2" d="M132.6,75.3h-1.9v-6.9h1.8v1.2h0.1c0.3-0.8,1.1-1.3,2.1-1.3c1.5,0,2.4,1,2.4,2.6v4.4h-1.9v-4.1
			c0-0.8-0.4-1.3-1.2-1.3s-1.3,0.5-1.3,1.4L132.6,75.3L132.6,75.3z"/>
		<path class="st2" d="M138.3,71.9c0-2.1,1.3-3.6,3.4-3.6c1.8,0,3,1.1,3.1,2.7H143c-0.1-0.7-0.6-1.1-1.3-1.1c-0.9,0-1.5,0.8-1.5,2
			c0,1.3,0.6,2.1,1.5,2.1c0.6,0,1.1-0.4,1.3-1.1h1.8c-0.1,1.6-1.3,2.7-3.1,2.7C139.5,75.4,138.3,74,138.3,71.9z"/>
		<path class="st2" d="M145.7,71.9c0-2.2,1.3-3.6,3.4-3.6c1.8,0,3.2,1.1,3.2,3.5v0.5h-4.7l0,0c0,1,0.6,1.6,1.6,1.6
			c0.6,0,1.1-0.3,1.3-0.8l1.8,0.1c-0.3,1.3-1.4,2.1-3.1,2.1C147,75.4,145.7,74.1,145.7,71.9z M150.5,71.2c0-0.8-0.6-1.4-1.4-1.4
			c-0.8,0-1.5,0.6-1.5,1.4H150.5z"/>
		<path class="st2" d="M157.5,70.5c-0.1-0.4-0.5-0.8-1.1-0.8c-0.6,0-1.1,0.3-1.1,0.7c0,0.3,0.3,0.6,0.9,0.7l1.3,0.3
			c1.3,0.3,2,0.9,2,1.9c0,1.3-1.3,2.3-3.1,2.3s-3-0.8-3.1-2.2l1.9-0.1c0.1,0.6,0.6,0.8,1.3,0.8s1.1-0.3,1.1-0.7
			c0-0.3-0.3-0.6-0.9-0.7l-1.2-0.3c-1.3-0.3-2-1-2-2c0-1.3,1.1-2.2,2.9-2.2s2.8,0.8,2.9,2L157.5,70.5z"/>
	</g>
	<g id="Grupo_769_2_">
		<g id="Grupo_506_2_" transform="translate(0 0)">
			<g id="Grupo_505_2_">
				
					<linearGradient id="Trazado_781_1_" gradientUnits="userSpaceOnUse" x1="72.3999" y1="50.3432" x2="-14.4291" y2="7.4192" gradientTransform="matrix(1 0 0 -1 0 82)">
					<stop  offset="0" style="stop-color:#D0CFCD"/>
					<stop  offset="1" style="stop-color:#4A4C50"/>
				</linearGradient>
				<path id="Trazado_781_2_" class="st3" d="M8.7,41.7L18,64.2h0.4l9.2-22.5h8.7v33.5h-6.8V53.4h-0.3L20.5,75h-4.6L7.2,53.3H6.9
					v21.9H0V41.7H8.7z"/>
			</g>
		</g>
		<g id="Grupo_507_2_" transform="translate(66.954 0.065)">
			
				<linearGradient id="Rectángulo_355_1_" gradientUnits="userSpaceOnUse" x1="-59.4224" y1="46.1241" x2="-146.2514" y2="3.2001" gradientTransform="matrix(1 0 0 -1 66.954 81.935)">
				<stop  offset="0" style="stop-color:#D0CFCD"/>
				<stop  offset="1" style="stop-color:#4A4C50"/>
			</linearGradient>
			<rect id="Rectángulo_355_2_" x="-24.5" y="41.7" class="st4" width="26.8" height="6.7"/>
			
				<linearGradient id="Rectángulo_356_1_" gradientUnits="userSpaceOnUse" x1="-54.1082" y1="35.3743" x2="-140.9372" y2="-7.5497" gradientTransform="matrix(1 0 0 -1 66.954 81.935)">
				<stop  offset="0" style="stop-color:#D0CFCD"/>
				<stop  offset="1" style="stop-color:#4A4C50"/>
			</linearGradient>
			<rect id="Rectángulo_356_2_" x="-24.5" y="55.1" class="st5" width="26.8" height="6.7"/>
			
				<linearGradient id="Rectángulo_357_1_" gradientUnits="userSpaceOnUse" x1="-48.794" y1="24.6244" x2="-135.623" y2="-18.2995" gradientTransform="matrix(1 0 0 -1 66.954 81.935)">
				<stop  offset="0" style="stop-color:#D0CFCD"/>
				<stop  offset="1" style="stop-color:#4A4C50"/>
			</linearGradient>
			<rect id="Rectángulo_357_2_" x="-24.5" y="68.4" class="st6" width="26.8" height="6.7"/>
		</g>
	</g>
</g>
</svg>
