<?xml version="1.0" encoding="utf-8"?>
<!-- Generator: Adobe Illustrator 24.1.2, SVG Export Plug-In . SVG Version: 6.00 Build 0)  -->
<svg version="1.1" id="Capa_1" xmlns="http://www.w3.org/2000/svg" xmlns:xlink="http://www.w3.org/1999/xlink" x="0px" y="0px"
	 width="52px" height="52px" viewBox="0 0 52 52" style="enable-background:new 0 0 52 52;" xml:space="preserve">
<style type="text/css">
	.st0{opacity:0.498;fill:#1D1D1D;enable-background:new    ;}
	.st1{fill:url(#Fill_1_1_);}
</style>
<g id="Grupo_2908" transform="translate(-774.939 -336.939)">
	<circle id="Elipse_102" class="st0" cx="800.9" cy="362.9" r="25"/>
	<g id="Play" transform="translate(799.655 357.576)">
		
			<linearGradient id="Fill_1_1_" gradientUnits="userSpaceOnUse" x1="-922.7133" y1="526.4731" x2="-921.978" y2="527.2084" gradientTransform="matrix(26.4323 0 0 -26.4314 24381.6348 13928.1152)">
			<stop  offset="0" style="stop-color:#FFFFFF"/>
			<stop  offset="1" style="stop-color:#D9D9D6"/>
		</linearGradient>
		<path id="Fill_1" class="st1" d="M13.8,4.9c-0.1-0.1-0.2-0.2-0.3-0.3l-18-9c-0.3-0.2-0.8,0-0.9,0.3c0,0.1-0.1,0.2-0.1,0.3v18
			c0,0.4,0.3,0.7,0.7,0.7c0.1,0,0.2,0,0.3-0.1l18-9C13.9,5.7,14,5.3,13.8,4.9C13.8,4.9,13.8,4.9,13.8,4.9"/>
	</g>
</g>
</svg>
