<?xml version="1.0" encoding="utf-8"?>
<!-- Generator: Adobe Illustrator 24.1.2, SVG Export Plug-In . SVG Version: 6.00 Build 0)  -->
<svg version="1.1" id="Capa_1" xmlns="http://www.w3.org/2000/svg" xmlns:xlink="http://www.w3.org/1999/xlink" x="0px" y="0px"
	 width="80px" height="80px" viewBox="0 0 80 80" style="enable-background:new 0 0 80 80;" xml:space="preserve">
<style type="text/css">
	.st0{fill:url(#SVGID_1_);}
</style>
<g>
	<linearGradient id="SVGID_1_" gradientUnits="userSpaceOnUse" x1="5" y1="40" x2="75" y2="40">
		<stop  offset="1.230794e-02" style="stop-color:#C4637D"/>
		<stop  offset="1" style="stop-color:#784595"/>
	</linearGradient>
	<path class="st0" d="M40,75c19.3,0,35-15.7,35-35S59.3,5,40,5c-0.6,0-1.1,0.5-1.1,1.1s0.5,1.1,1.1,1.1c18.1,0,32.8,14.7,32.8,32.8
		S58.1,72.8,40,72.8S7.2,58.1,7.2,40c0-6.9,2.3-13.4,6.3-19l5.1-4.9v9.7c0,0.6,0.5,1.1,1.1,1.1s1.1-0.5,1.1-1.1v-12l-1.5-1.1h-12
		c-0.6,0-1.1,0.5-1.1,1.1s0.5,1.1,1.1,1.1h9.1l-4.7,4.7l-0.1,0.1C7.2,25.6,5,32.7,5,40C5,59.3,20.7,75,40,75z M40.4,8.3
		c-0.6,0-1.1,0.5-1.1,1.1v4.4c0,0.6,0.5,1.1,1.1,1.1s1.1-0.5,1.1-1.1V9.4C41.5,8.8,41.1,8.3,40.4,8.3z M39.4,66.2v4.4
		c0,0.6,0.5,1.1,1.1,1.1s1.1-0.5,1.1-1.1v-4.4c0-0.6-0.5-1.1-1.1-1.1C39.8,65.2,39.4,65.6,39.4,66.2z M70.6,41.1
		c0.6,0,1.1-0.5,1.1-1.1s-0.5-1.1-1.1-1.1h-4.4c-0.6,0-1.1,0.5-1.1,1.1s0.5,1.1,1.1,1.1H70.6z M9.4,38.9c-0.6,0-1.1,0.5-1.1,1.1
		s0.5,1.1,1.1,1.1h4.4c0.6,0,1.1-0.5,1.1-1.1s-0.5-1.1-1.1-1.1H9.4z M49.3,50.6l-9.9-10.2V18.1c0-0.6,0.5-1.1,1.1-1.1
		s1.1,0.5,1.1,1.1v21.4l9.3,9.5c0.4,0.4,0.2,1.1-0.2,1.5c-0.2,0.2-0.5,0.3-0.8,0.3C49.6,50.9,49.5,50.8,49.3,50.6z"/>
</g>
</svg>
